<svg width="21" height="19" viewBox="0 0 21 19" fill="none" xmlns="http://www.w3.org/2000/svg">
<path d="M20.0474 8.54849C20.6483 9.14938 20.6483 10.1252 20.0474 10.7261L12.356 18.4175C11.7551 19.0184 10.7793 19.0184 10.1784 18.4175C9.57748 17.8166 9.57748 16.8408 10.1784 16.2399L16.7833 9.6349L10.1832 3.02992C9.58229 2.42903 9.58229 1.45319 10.1832 0.852298C10.7841 0.251409 11.7599 0.251409 12.3608 0.852298L20.0522 8.54368L20.0474 8.54849ZM3.12634 0.857107L10.8177 8.54849C11.4186 9.14938 11.4186 10.1252 10.8177 10.7261L3.12634 18.4175C2.52545 19.0184 1.5496 19.0184 0.948714 18.4175C0.347824 17.8166 0.347824 16.8408 0.948714 16.2399L7.55369 9.6349L0.95352 3.02992C0.352631 2.42903 0.352631 1.45319 0.95352 0.852299C1.55441 0.251409 2.53025 0.251409 3.13114 0.852299L3.12634 0.857107Z" fill="#F8FAFA"/>
</svg>
