<svg width="21" height="20" viewBox="0 0 21 20" fill="none" xmlns="http://www.w3.org/2000/svg">
<path d="M20.0474 9.08169C20.6483 9.68258 20.6483 10.6584 20.0474 11.2593L12.356 18.9507C11.7551 19.5516 10.7793 19.5516 10.1784 18.9507C9.57748 18.3498 9.57748 17.374 10.1784 16.7731L16.7833 10.1681L10.1832 3.56313C9.58229 2.96224 9.58229 1.98639 10.1832 1.3855C10.7841 0.784612 11.7599 0.784612 12.3608 1.3855L20.0522 9.07689L20.0474 9.08169ZM3.12634 1.39031L10.8177 9.08169C11.4186 9.68258 11.4186 10.6584 10.8177 11.2593L3.12634 18.9507C2.52545 19.5516 1.5496 19.5516 0.948714 18.9507C0.347824 18.3498 0.347824 17.374 0.948714 16.7731L7.55369 10.1681L0.95352 3.56313C0.352631 2.96224 0.352631 1.98639 0.95352 1.3855C1.55441 0.784613 2.53025 0.784613 3.13114 1.3855L3.12634 1.39031Z" fill="#FF5017"/>
</svg>
