<svg width="210" height="210" viewBox="0 0 210 210" fill="none" xmlns="http://www.w3.org/2000/svg">
<g clip-path="url(#clip0_1_1707)">
<path opacity="0.45" d="M29.474 105.101C29.474 147.314 63.7009 181.541 105.914 181.541C148.127 181.541 182.354 147.314 182.354 105.101C182.354 62.8874 148.127 28.6605 105.914 28.6605C63.7009 28.6605 29.474 62.8874 29.474 105.101ZM21.8399 105.101C21.8399 58.6725 59.4695 21.0264 105.914 21.0264C152.342 21.0264 189.988 58.656 189.988 105.101C189.988 151.529 152.359 189.175 105.914 189.175C59.486 189.175 21.8399 151.545 21.8399 105.101Z" stroke="#010F58"/>
<path opacity="0.432" d="M29.324 105.101C29.324 147.397 63.6176 181.691 105.914 181.691C148.211 181.691 182.488 147.397 182.504 105.101C182.504 62.8041 148.211 28.5106 105.914 28.5106C63.6176 28.5106 29.324 62.8041 29.324 105.101ZM21.9399 105.101C21.9399 58.7227 59.5362 21.1265 105.914 21.1265C152.275 21.1265 189.872 58.7226 189.888 105.101C189.888 151.479 152.292 189.075 105.914 189.075C59.5362 189.075 21.9399 151.479 21.9399 105.101Z" stroke="#010F58"/>
<path opacity="0.414" d="M29.1906 105.101C29.1906 147.481 63.5342 181.824 105.914 181.824C148.277 181.824 182.638 147.481 182.638 105.101C182.638 62.7208 148.294 28.3772 105.914 28.3772C63.5342 28.3772 29.1906 62.7208 29.1906 105.101ZM22.0566 105.101C22.0566 58.7894 59.6028 21.2432 105.914 21.2432C152.209 21.2432 189.755 58.7893 189.772 105.101C189.772 151.412 152.226 188.958 105.914 188.958C59.6028 188.958 22.0566 151.412 22.0566 105.101Z" stroke="#010F58"/>
<path opacity="0.396" d="M29.0573 105.101C29.0573 147.547 63.4676 181.957 105.914 181.957C148.361 181.957 182.771 147.547 182.771 105.101C182.771 62.6539 148.361 28.2437 105.914 28.2437C63.4676 28.2437 29.0573 62.6539 29.0573 105.101ZM22.1733 105.101C22.1733 58.8558 59.6695 21.3596 105.914 21.3596C152.159 21.3596 189.639 58.8557 189.655 105.101C189.655 151.345 152.159 188.841 105.914 188.841C59.6695 188.841 22.1733 151.345 22.1733 105.101Z" stroke="#010F58"/>
<path opacity="0.378" d="M28.9073 105.101C28.9073 147.63 63.3842 182.107 105.914 182.107C148.428 182.107 182.904 147.63 182.921 105.101C182.921 62.5706 148.444 28.0937 105.914 28.0937C63.3842 28.0937 28.9073 62.5706 28.9073 105.101ZM22.2899 105.101C22.2899 58.9225 59.7361 21.4763 105.914 21.4763C152.092 21.4763 189.522 58.9224 189.538 105.101C189.538 151.279 152.092 188.725 105.914 188.725C59.7361 188.725 22.2899 151.279 22.2899 105.101Z" stroke="#010F58"/>
<path opacity="0.36" d="M28.7739 105.101C28.7739 147.697 63.3008 182.241 105.914 182.241C148.511 182.241 183.054 147.714 183.054 105.101C183.054 62.504 148.528 27.9603 105.914 27.9603C63.3176 27.9603 28.7739 62.4872 28.7739 105.101ZM22.4066 105.101C22.4066 58.9725 59.7861 21.593 105.914 21.593C152.026 21.593 189.422 58.9892 189.422 105.101C189.422 151.229 152.042 188.608 105.914 188.608C59.7861 188.608 22.4066 151.229 22.4066 105.101Z" stroke="#010F58"/>
<path opacity="0.342" d="M28.624 105.101C28.624 147.797 63.2343 182.391 105.914 182.391C148.594 182.391 183.204 147.797 183.204 105.101C183.204 62.4039 148.594 27.8104 105.914 27.8104C63.2176 27.8104 28.624 62.404 28.624 105.101ZM22.5233 105.101C22.5233 59.0392 59.8528 21.7097 105.914 21.7097C151.959 21.7097 189.305 59.0393 189.305 105.101C189.305 151.162 151.976 188.491 105.914 188.491C59.8528 188.491 22.5233 151.162 22.5233 105.101Z" stroke="#010F58"/>
<path opacity="0.324" d="M28.4906 105.101C28.4906 147.864 63.1509 182.524 105.914 182.524C148.661 182.524 183.338 147.864 183.338 105.101C183.338 62.3373 148.677 27.677 105.914 27.677C63.1509 27.677 28.4906 62.3373 28.4906 105.101ZM22.64 105.101C22.64 59.1059 59.9195 21.8264 105.914 21.8264C151.892 21.8264 189.188 59.106 189.188 105.101C189.188 151.095 151.909 188.375 105.914 188.375C59.9195 188.375 22.64 151.095 22.64 105.101Z" stroke="#010F58"/>
<path opacity="0.306" d="M28.3572 105.101C28.3572 147.931 63.0842 182.658 105.914 182.658C148.744 182.658 183.471 147.931 183.471 105.101C183.471 62.2707 148.744 27.5437 105.914 27.5437C63.0842 27.5437 28.3572 62.2707 28.3572 105.101ZM22.7567 105.101C22.7567 59.1726 59.9862 21.9431 105.914 21.9431C151.842 21.9431 189.072 59.1726 189.072 105.101C189.072 151.029 151.842 188.258 105.914 188.258C59.9862 188.258 22.7567 151.029 22.7567 105.101Z" stroke="#010F58"/>
<path opacity="0.288" d="M28.2073 105.101C28.2073 148.014 63.0009 182.808 105.914 182.808C148.828 182.808 183.604 148.014 183.621 105.101C183.621 62.1873 148.827 27.3937 105.914 27.3937C63.0009 27.3937 28.2073 62.1873 28.2073 105.101ZM22.8734 105.101C22.8734 59.2393 60.0529 22.0598 105.914 22.0598C151.776 22.0598 188.955 59.2393 188.955 105.101C188.955 150.962 151.776 188.141 105.914 188.141C60.0529 188.141 22.8734 150.962 22.8734 105.101Z" stroke="#010F58"/>
<path opacity="0.27" d="M28.0739 105.101C28.0739 148.097 62.9175 182.941 105.914 182.941C148.894 182.941 183.754 148.097 183.754 105.101C183.754 62.1041 148.911 27.2605 105.914 27.2605C62.9175 27.2605 28.0739 62.1041 28.0739 105.101ZM22.9733 105.101C22.9733 59.2894 60.1028 22.1599 105.914 22.1599C151.709 22.1599 188.838 59.2894 188.855 105.101C188.855 150.912 151.725 188.042 105.914 188.042C60.1028 188.042 22.9733 150.912 22.9733 105.101Z" stroke="#010F58"/>
<path opacity="0.252" d="M27.9406 105.101C27.9406 148.164 62.8509 183.074 105.914 183.074C148.978 183.074 183.888 148.164 183.888 105.101C183.888 62.0372 148.978 27.1269 105.914 27.1269C62.8509 27.1269 27.9406 62.0372 27.9406 105.101ZM23.09 105.101C23.09 59.3559 60.1695 22.2764 105.914 22.2764C151.642 22.2764 188.738 59.3559 188.738 105.101C188.738 150.845 151.659 187.925 105.914 187.925C60.1695 187.925 23.09 150.845 23.09 105.101Z" stroke="#010F58"/>
<path opacity="0.234" d="M27.7906 105.101C27.7906 148.247 62.7675 183.224 105.914 183.224C149.044 183.224 184.021 148.247 184.038 105.101C184.038 61.9539 149.061 26.9769 105.914 26.9769C62.7675 26.9769 27.7906 61.9539 27.7906 105.101ZM23.2067 105.101C23.2067 59.4226 60.2362 22.3931 105.914 22.3931C151.576 22.3931 188.622 59.4226 188.622 105.101C188.622 150.779 151.592 187.808 105.914 187.808C60.2362 187.808 23.2067 150.779 23.2067 105.101Z" stroke="#010F58"/>
<path opacity="0.216" d="M27.6572 105.101C27.6572 148.314 62.7008 183.358 105.914 183.358C149.128 183.358 184.171 148.314 184.171 105.101C184.171 61.8872 149.128 26.8436 105.914 26.8436C62.7008 26.8436 27.6572 61.8872 27.6572 105.101ZM23.3234 105.101C23.3234 59.4892 60.3028 22.5098 105.914 22.5098C151.525 22.5098 188.488 59.4891 188.505 105.101C188.505 150.712 151.525 187.691 105.914 187.691C60.3028 187.691 23.3234 150.712 23.3234 105.101Z" stroke="#010F58"/>
<path opacity="0.198" d="M27.5072 105.101C27.5072 148.414 62.6176 183.508 105.914 183.508C149.211 183.508 184.321 148.414 184.321 105.101C184.321 61.7872 149.211 26.6936 105.914 26.6936C62.6008 26.6936 27.5072 61.7872 27.5072 105.101ZM23.4401 105.101C23.4401 59.5559 60.3695 22.6265 105.914 22.6265C151.459 22.6265 188.388 59.5559 188.388 105.101C188.388 150.645 151.459 187.575 105.914 187.575C60.3695 187.575 23.4401 150.645 23.4401 105.101Z" stroke="#010F58"/>
<path opacity="0.18" d="M27.3738 105.101C27.3738 148.481 62.5341 183.641 105.914 183.641C149.278 183.641 184.438 148.481 184.454 105.101C184.454 61.7206 149.294 26.5603 105.914 26.5603C62.5341 26.5603 27.3738 61.7206 27.3738 105.101ZM23.5567 105.101C23.5567 59.6226 60.4196 22.7432 105.914 22.7432C151.392 22.7432 188.272 59.606 188.272 105.101C188.272 150.579 151.392 187.458 105.914 187.458C60.4361 187.458 23.5567 150.595 23.5567 105.101Z" stroke="#010F58"/>
<path opacity="0.162" d="M27.2405 105.101C27.2405 148.547 62.4675 183.774 105.914 183.774C149.361 183.774 184.588 148.547 184.588 105.101C184.588 61.6539 149.361 26.4269 105.914 26.4269C62.4675 26.4269 27.2405 61.6539 27.2405 105.101ZM23.6734 105.101C23.6734 59.6893 60.4863 22.8599 105.914 22.8599C151.326 22.8599 188.155 59.6727 188.155 105.101C188.155 150.512 151.342 187.341 105.914 187.341C60.5028 187.341 23.6734 150.529 23.6734 105.101Z" stroke="#010F58"/>
<path opacity="0.144" d="M27.0905 105.101C27.0905 148.631 62.3842 183.924 105.914 183.924C149.427 183.924 184.738 148.631 184.738 105.101C184.738 61.5706 149.444 26.2769 105.914 26.2769C62.3842 26.2769 27.0905 61.5706 27.0905 105.101ZM23.7901 105.101C23.7901 59.756 60.553 22.9766 105.914 22.9766C151.259 22.9766 188.038 59.7394 188.038 105.101C188.038 150.445 151.275 187.225 105.914 187.225C60.5695 187.225 23.7901 150.462 23.7901 105.101Z" stroke="#010F58"/>
<path opacity="0.126" d="M26.9571 105.101C26.9571 148.714 62.3008 184.058 105.914 184.058C149.511 184.058 184.871 148.714 184.871 105.101C184.871 61.4874 149.528 26.1437 105.914 26.1437C62.3008 26.1437 26.9571 61.4874 26.9571 105.101ZM23.8901 105.101C23.8901 59.7895 60.6195 23.0767 105.914 23.0767C151.209 23.0767 187.922 59.806 187.938 105.101C187.938 150.412 151.209 187.125 105.914 187.125C60.6029 187.125 23.8901 150.395 23.8901 105.101Z" stroke="#010F58"/>
<path opacity="0.108" d="M26.8238 105.101C26.8238 148.781 62.2341 184.191 105.914 184.191C149.594 184.191 185.005 148.781 185.005 105.101C185.005 61.4205 149.594 26.0101 105.914 26.0101C62.2341 26.0101 26.8238 61.4205 26.8238 105.101ZM24.0068 105.101C24.0068 59.856 60.6862 23.1931 105.914 23.1931C151.142 23.1931 187.805 59.8724 187.822 105.101C187.822 150.345 151.142 187.008 105.914 187.008C60.6696 187.008 24.0068 150.329 24.0068 105.101Z" stroke="#010F58"/>
<path opacity="0.09" d="M26.6738 105.101C26.6738 148.864 62.1508 184.341 105.914 184.341C149.661 184.341 185.155 148.864 185.155 105.101C185.155 61.3372 149.678 25.8601 105.914 25.8601C62.1508 25.8601 26.6738 61.3372 26.6738 105.101ZM24.1235 105.101C24.1235 59.9226 60.7363 23.3098 105.914 23.3098C151.075 23.3098 187.688 59.9225 187.705 105.101C187.705 150.278 151.092 186.891 105.914 186.891C60.7363 186.891 24.1235 150.278 24.1235 105.101Z" stroke="#010F58"/>
<path opacity="0.072" d="M26.5404 105.101C26.5404 148.931 62.0841 184.474 105.914 184.474C149.744 184.474 185.288 148.931 185.288 105.101C185.288 61.2705 149.744 25.7268 105.914 25.7268C62.0674 25.7268 26.5404 61.2706 26.5404 105.101ZM24.2401 105.101C24.2401 59.9893 60.8029 23.4265 105.914 23.4265C151.009 23.4265 187.572 59.9892 187.588 105.101C187.588 150.212 151.025 186.775 105.914 186.775C60.8029 186.775 24.2401 150.212 24.2401 105.101Z" stroke="#010F58"/>
<path opacity="0.054" d="M26.4071 105.101C26.4071 149.014 62.0008 184.608 105.914 184.608C149.828 184.608 185.421 149.014 185.421 105.101C185.421 61.1872 149.828 25.5935 105.914 25.5935C62.0008 25.5935 26.4071 61.1872 26.4071 105.101ZM24.3568 105.101C24.3568 60.056 60.8696 23.5432 105.914 23.5432C150.942 23.5432 187.472 60.0561 187.472 105.101C187.472 150.145 150.959 186.658 105.914 186.658C60.8696 186.658 24.3568 150.145 24.3568 105.101Z" stroke="#010F58"/>
<path opacity="0.036" d="M26.257 105.101C26.257 149.097 61.9174 184.758 105.914 184.758C149.894 184.758 185.554 149.097 185.571 105.101C185.571 61.1039 149.911 25.4435 105.914 25.4435C61.9174 25.4435 26.257 61.1039 26.257 105.101ZM24.4734 105.101C24.4734 60.1227 60.9362 23.6599 105.914 23.6599C150.892 23.6599 187.355 60.1227 187.355 105.101C187.355 150.079 150.892 186.541 105.914 186.541C60.9362 186.541 24.4734 150.079 24.4734 105.101Z" stroke="#010F58"/>
<path opacity="0.018" d="M26.1237 105.101C26.1237 149.164 61.8508 184.891 105.914 184.891C149.978 184.891 185.705 149.164 185.705 105.101C185.705 61.0372 149.978 25.3102 105.914 25.3102C61.8508 25.3102 26.1237 61.0372 26.1237 105.101ZM24.5901 105.101C24.5901 60.1894 61.0029 23.7766 105.914 23.7766C150.825 23.7766 187.238 60.1894 187.238 105.101C187.238 150.012 150.825 186.425 105.914 186.425C61.0029 186.425 24.5901 150.012 24.5901 105.101Z" stroke="#010F58"/>
<path opacity="0.52" d="M195.444 53.6637L194.694 52.3645L189.194 55.5398L189.944 56.8389L195.444 53.6637Z" fill="#FF5017"/>
<path opacity="0.42" d="M189.581 44.4755L188.699 43.262L183.561 46.9951L184.443 48.2086L189.581 44.4755Z" fill="#FF5017"/>
<path opacity="0.32" d="M182.777 35.9489L181.773 34.834L177.053 39.0834L178.057 40.1983L182.777 35.9489Z" fill="#FF5017"/>
<path opacity="0.22" d="M175.112 28.1959L173.997 27.1921L169.748 31.9113L170.863 32.915L175.112 28.1959Z" fill="#FF5017"/>
<path opacity="0.11" d="M166.682 21.2592L165.468 20.3774L161.735 25.5148L162.949 26.3965L166.682 21.2592Z" fill="#FF5017"/>
<path opacity="0.02" d="M157.586 15.2585L156.287 14.5085L153.112 20.0088L154.412 20.7587L157.586 15.2585Z" fill="#FF5017"/>
<path opacity="0.02" d="M53.4237 14.507L52.1246 15.2571L55.2999 20.7568L56.599 20.0068L53.4237 14.507Z" fill="#FF5017"/>
<path opacity="0.11" d="M44.2242 20.3754L43.0106 21.2571L46.7431 26.3948L47.9567 25.5131L44.2242 20.3754Z" fill="#FF5017"/>
<path opacity="0.22" d="M35.7089 27.1792L34.5942 28.1831L38.8439 32.902L39.9586 31.8981L35.7089 27.1792Z" fill="#FF5017"/>
<path opacity="0.32" d="M27.9361 34.8363L26.9323 35.9512L31.6517 40.2008L32.6555 39.086L27.9361 34.8363Z" fill="#FF5017"/>
<path opacity="0.42" d="M21.0077 43.2639L20.1259 44.4775L25.2636 48.2107L26.1454 46.9971L21.0077 43.2639Z" fill="#FF5017"/>
<path opacity="0.52" d="M15.0063 52.3737L14.2563 53.6729L19.756 56.848L20.506 55.5489L15.0063 52.3737Z" fill="#FF5017"/>
<path opacity="0.52" d="M9.97841 62.0402L9.36829 63.4106L15.1698 65.9935L15.78 64.6231L9.97841 62.0402Z" fill="#FF5017"/>
<path opacity="0.52" d="M5.98953 72.193L5.526 73.6196L11.5654 75.5819L12.029 74.1553L5.98953 72.193Z" fill="#FF5017"/>
<path opacity="0.52" d="M3.09729 82.7107L2.7854 84.178L8.99686 85.4983L9.30875 84.031L3.09729 82.7107Z" fill="#FF5017"/>
<path opacity="0.52" d="M1.32133 93.4773L1.16449 94.9692L7.48022 95.6332L7.63706 94.1413L1.32133 93.4773Z" fill="#FF5017"/>
<path opacity="0.52" d="M0.689358 104.361L0.689209 105.861L7.03995 105.862L7.0401 104.361L0.689358 104.361Z" fill="#FF5017"/>
<path opacity="0.52" d="M1.14768 115.255L1.3045 116.747L7.61993 116.083L7.46311 114.591L1.14768 115.255Z" fill="#FF5017"/>
<path opacity="0.52" d="M2.782 126.019L3.09387 127.487L9.3053 126.166L8.99342 124.699L2.782 126.019Z" fill="#FF5017"/>
<path opacity="0.52" d="M5.55146 136.577L6.01508 138.004L12.0551 136.041L11.5915 134.614L5.55146 136.577Z" fill="#FF5017"/>
<path opacity="0.52" d="M9.37628 146.794L9.98633 148.164L15.788 145.582L15.1779 144.211L9.37628 146.794Z" fill="#FF5017"/>
<path opacity="0.52" d="M14.2506 156.544L15.0007 157.843L20.5004 154.667L19.7504 153.368L14.2506 156.544Z" fill="#FF5017"/>
<path opacity="0.52" d="M20.1087 165.721L20.9905 166.934L26.1279 163.201L25.2461 161.988L20.1087 165.721Z" fill="#FF5017"/>
<path opacity="0.52" d="M26.9309 174.239L27.9348 175.354L32.6545 171.104L31.6507 169.989L26.9309 174.239Z" fill="#FF5017"/>
<path opacity="0.52" d="M34.5677 182.016L35.6826 183.019L39.9314 178.3L38.8165 177.296L34.5677 182.016Z" fill="#FF5017"/>
<path opacity="0.52" d="M43.0028 188.959L44.2164 189.84L47.949 184.703L46.7355 183.821L43.0028 188.959Z" fill="#FF5017"/>
<path opacity="0.52" d="M52.1032 194.933L53.4025 195.683L56.5773 190.183L55.278 189.433L52.1032 194.933Z" fill="#FF5017"/>
<path opacity="0.52" d="M61.7808 199.97L63.1512 200.58L65.7341 194.779L64.3637 194.169L61.7808 199.97Z" fill="#FF5017"/>
<path opacity="0.52" d="M71.9505 203.955L73.3771 204.418L75.3394 198.379L73.9128 197.915L71.9505 203.955Z" fill="#FF5017"/>
<path opacity="0.52" d="M82.4629 206.867L83.9302 207.178L85.2505 200.967L83.7832 200.655L82.4629 206.867Z" fill="#FF5017"/>
<path opacity="0.52" d="M93.1989 208.642L94.6909 208.799L95.3548 202.483L93.8629 202.326L93.1989 208.642Z" fill="#FF5017"/>
<path opacity="0.52" d="M104.1 209.275L105.601 209.275L105.601 202.924L104.101 202.924L104.1 209.275Z" fill="#FF5017"/>
<path opacity="0.52" d="M114.983 208.789L116.475 208.632L115.811 202.316L114.319 202.473L114.983 208.789Z" fill="#FF5017"/>
<path opacity="0.52" d="M125.77 207.158L127.238 206.846L125.917 200.634L124.45 200.946L125.77 207.158Z" fill="#FF5017"/>
<path opacity="0.52" d="M136.339 204.395L137.766 203.932L135.804 197.892L134.377 198.356L136.339 204.395Z" fill="#FF5017"/>
<path opacity="0.52" d="M146.535 200.591L147.905 199.981L145.322 194.179L143.952 194.79L146.535 200.591Z" fill="#FF5017"/>
<path opacity="0.52" d="M156.281 195.695L157.58 194.944L154.405 189.445L153.106 190.195L156.281 195.695Z" fill="#FF5017"/>
<path opacity="0.52" d="M165.476 189.823L166.689 188.941L162.957 183.803L161.743 184.685L165.476 189.823Z" fill="#FF5017"/>
<path opacity="0.52" d="M174.01 183.023L175.125 182.019L170.875 177.3L169.76 178.304L174.01 183.023Z" fill="#FF5017"/>
<path opacity="0.52" d="M181.762 175.371L182.766 174.257L178.046 170.007L177.043 171.122L181.762 175.371Z" fill="#FF5017"/>
<path opacity="0.52" d="M188.681 166.949L189.563 165.735L184.425 162.002L183.543 163.216L188.681 166.949Z" fill="#FF5017"/>
<path opacity="0.52" d="M194.693 157.837L195.443 156.538L189.943 153.363L189.193 154.662L194.693 157.837Z" fill="#FF5017"/>
<path opacity="0.52" d="M199.705 148.164L200.315 146.794L194.513 144.211L193.903 145.581L199.705 148.164Z" fill="#FF5017"/>
<path opacity="0.52" d="M203.698 137.994L204.161 136.567L198.122 134.605L197.658 136.032L203.698 137.994Z" fill="#FF5017"/>
<path opacity="0.52" d="M206.599 127.505L206.911 126.037L200.699 124.717L200.387 126.185L206.599 127.505Z" fill="#FF5017"/>
<path opacity="0.52" d="M208.376 116.739L208.533 115.247L202.217 114.583L202.06 116.075L208.376 116.739Z" fill="#FF5017"/>
<path opacity="0.52" d="M209.017 105.859L209.017 104.359L202.666 104.358L202.666 105.858L209.017 105.859Z" fill="#FF5017"/>
<path opacity="0.52" d="M208.533 94.9557L208.376 93.4639L202.061 94.1277L202.217 95.6196L208.533 94.9557Z" fill="#FF5017"/>
<path opacity="0.52" d="M206.892 84.1832L206.58 82.7158L200.369 84.0355L200.68 85.5029L206.892 84.1832Z" fill="#FF5017"/>
<path opacity="0.52" d="M204.167 73.6294L203.704 72.2026L197.664 74.1653L198.127 75.5921L204.167 73.6294Z" fill="#FF5017"/>
<path opacity="0.52" d="M200.325 63.4237L199.715 62.0532L193.914 64.6358L194.524 66.0062L200.325 63.4237Z" fill="#FF5017"/>
<path d="M80.9506 93L76.4506 95.7V100.7L80.9506 97.9333V117H85.5839V93H80.9506ZM99.8193 117.467C97.286 117.467 94.6527 116.567 92.9527 114.567C91.2527 112.433 90.9193 110.667 90.9193 107.933V102.033C90.9193 99.3667 91.186 97.6 92.9527 95.4C94.5193 93.5333 97.1193 92.4333 99.8193 92.5C102.353 92.4333 104.953 93.3667 106.686 95.4C108.419 97.4333 108.719 99.3 108.719 102.033V107.933C108.719 110.533 108.419 112.5 106.686 114.567C104.986 116.533 102.519 117.467 99.8193 117.467ZM99.8193 96.7667C98.3193 96.7333 96.8527 97.6333 96.1193 98.9333C95.586 99.8333 95.5527 100.767 95.5527 102.033V107.933C95.5527 109.067 95.5193 110.2 96.2193 111.233C97.0193 112.433 98.386 113.233 99.8193 113.2C101.286 113.233 102.686 112.433 103.453 111.2C104.119 110.233 104.086 109.367 104.086 107.933V102.033C104.086 100.833 104.153 100.1 103.586 98.9667C102.853 97.6333 101.353 96.7333 99.8193 96.7667ZM134.711 105.733H128.478V99.5H124.978V105.733H118.711V109.233H124.978V115.5H128.478V109.233H134.711V105.733Z" fill="#FF5017"/>
</g>
<defs>
<clipPath id="clip0_1_1707">
<rect width="208.352" height="208.352" fill="white" transform="translate(0.671387 0.924561)"/>
</clipPath>
</defs>
</svg>
