<svg width="23" height="23" viewBox="0 0 23 23" fill="none" xmlns="http://www.w3.org/2000/svg">
<circle cx="11.7445" cy="11.5901" r="10.7742" fill="#FF5017"/>
<path d="M9.21825 8.76883C9.21825 8.65357 9.3114 8.55884 9.42824 8.55884C9.4835 8.55884 9.53718 8.58094 9.57666 8.62042L9.81191 8.85567C9.75507 8.99777 9.7235 9.15408 9.7235 9.31671C9.7235 9.63091 9.83718 9.91669 10.0266 10.1377C9.94296 10.283 9.96349 10.4709 10.0866 10.5956C10.2351 10.744 10.4751 10.744 10.6219 10.5956L12.2655 8.95356C12.4139 8.80515 12.4139 8.56515 12.2655 8.41832C12.1408 8.29358 11.9529 8.27464 11.8076 8.35832C11.5866 8.16727 11.3008 8.05359 10.9866 8.05359C10.824 8.05359 10.6677 8.08517 10.5256 8.14043L10.2903 7.90517C10.0614 7.67623 9.75034 7.54834 9.42824 7.54834C8.75405 7.54834 8.20775 8.09464 8.20775 8.76883V11.5903C7.92828 11.5903 7.7025 11.8161 7.7025 12.0956C7.7025 12.375 7.92828 12.6008 8.20775 12.6008H15.2812C15.5607 12.6008 15.7865 12.375 15.7865 12.0956C15.7865 11.8161 15.5607 11.5903 15.2812 11.5903H9.21825V8.76883ZM8.20775 13.1061V13.3587C8.20775 13.8071 8.40353 14.2113 8.713 14.4892V15.1271C8.713 15.4065 8.93878 15.6323 9.21825 15.6323C9.49771 15.6323 9.7235 15.4065 9.7235 15.1271V14.8745H13.7655V15.1271C13.7655 15.4065 13.9913 15.6323 14.2707 15.6323C14.5502 15.6323 14.776 15.4065 14.776 15.1271V14.4892C15.0855 14.2113 15.2812 13.8087 15.2812 13.3587V13.1061H8.20775Z" fill="#F8FAFA"/>
</svg>
