<svg width="23" height="23" viewBox="0 0 23 23" fill="none" xmlns="http://www.w3.org/2000/svg">
<circle cx="11.5054" cy="11.5901" r="10.7742" fill="#F8FAFA"/>
<path d="M8.97913 8.76883C8.97913 8.65357 9.07228 8.55884 9.18912 8.55884C9.24438 8.55884 9.29806 8.58094 9.33754 8.62042L9.57279 8.85567C9.51595 8.99777 9.48438 9.15408 9.48438 9.31671C9.48438 9.63091 9.59806 9.91669 9.78752 10.1377C9.70384 10.283 9.72437 10.4709 9.84752 10.5956C9.99594 10.744 10.2359 10.744 10.3828 10.5956L12.0264 8.95356C12.1748 8.80515 12.1748 8.56515 12.0264 8.41832C11.9017 8.29358 11.7138 8.27464 11.5685 8.35832C11.3475 8.16727 11.0617 8.05359 10.7475 8.05359C10.5849 8.05359 10.4286 8.08517 10.2865 8.14043L10.0512 7.90517C9.82226 7.67623 9.51122 7.54834 9.18912 7.54834C8.51493 7.54834 7.96863 8.09464 7.96863 8.76883V11.5903C7.68916 11.5903 7.46338 11.8161 7.46338 12.0956C7.46338 12.375 7.68916 12.6008 7.96863 12.6008H15.0421C15.3216 12.6008 15.5474 12.375 15.5474 12.0956C15.5474 11.8161 15.3216 11.5903 15.0421 11.5903H8.97913V8.76883ZM7.96863 13.1061V13.3587C7.96863 13.8071 8.16441 14.2113 8.47388 14.4892V15.1271C8.47388 15.4065 8.69966 15.6323 8.97913 15.6323C9.25859 15.6323 9.48438 15.4065 9.48438 15.1271V14.8745H13.5264V15.1271C13.5264 15.4065 13.7522 15.6323 14.0316 15.6323C14.3111 15.6323 14.5369 15.4065 14.5369 15.1271V14.4892C14.8463 14.2113 15.0421 13.8087 15.0421 13.3587V13.1061H7.96863Z" fill="#FF5017"/>
</svg>
