<svg width="23" height="23" viewBox="0 0 23 23" fill="none" xmlns="http://www.w3.org/2000/svg">
<circle cx="11.6727" cy="11.5901" r="10.7742" fill="#F8FAFA"/>
<path d="M6.47609 7.54834C6.79547 7.54834 7.0535 7.80637 7.0535 8.12575V12.745H11.0954V9.85798C11.0954 9.5386 11.3534 9.28057 11.6728 9.28057H15.7147C16.671 9.28057 17.4469 10.0565 17.4469 11.0128V15.0547C17.4469 15.3741 17.1889 15.6321 16.8695 15.6321C16.5501 15.6321 16.2921 15.3741 16.2921 15.0547V14.4773H12.2502H11.6728H7.0535V15.0547C7.0535 15.3741 6.79547 15.6321 6.47609 15.6321C6.15671 15.6321 5.89868 15.3741 5.89868 15.0547V8.12575C5.89868 7.80637 6.15671 7.54834 6.47609 7.54834ZM9.07444 12.1676C8.27689 12.1676 7.63091 11.5216 7.63091 10.7241C7.63091 9.92655 8.27689 9.28057 9.07444 9.28057C9.87199 9.28057 10.518 9.92655 10.518 10.7241C10.518 11.5216 9.87199 12.1676 9.07444 12.1676Z" fill="#FF5017"/>
</svg>
