<svg width="23" height="23" viewBox="0 0 23 23" fill="none" xmlns="http://www.w3.org/2000/svg">
<circle cx="11.4435" cy="11.5901" r="10.7742" fill="#FF5017"/>
<path d="M6.24678 7.54834C6.56616 7.54834 6.82419 7.80637 6.82419 8.12575V12.745H10.8661V9.85798C10.8661 9.5386 11.1241 9.28057 11.4435 9.28057H15.4854C16.4417 9.28057 17.2176 10.0565 17.2176 11.0128V15.0547C17.2176 15.3741 16.9596 15.6321 16.6402 15.6321C16.3208 15.6321 16.0628 15.3741 16.0628 15.0547V14.4773H12.0209H11.4435H6.82419V15.0547C6.82419 15.3741 6.56616 15.6321 6.24678 15.6321C5.9274 15.6321 5.66937 15.3741 5.66937 15.0547V8.12575C5.66937 7.80637 5.9274 7.54834 6.24678 7.54834ZM8.84513 12.1676C8.04758 12.1676 7.40161 11.5216 7.40161 10.7241C7.40161 9.92655 8.04758 9.28057 8.84513 9.28057C9.64268 9.28057 10.2887 9.92655 10.2887 10.7241C10.2887 11.5216 9.64268 12.1676 8.84513 12.1676Z" fill="#F8FAFA"/>
</svg>
