<svg width="22" height="21" viewBox="0 0 22 21" fill="none" xmlns="http://www.w3.org/2000/svg">
<path d="M17.6545 12.7357C17.3819 12.9999 17.2566 13.382 17.3187 13.7567L18.2545 18.9353C18.3334 19.3742 18.1482 19.8184 17.7808 20.0721C17.4208 20.3352 16.9419 20.3668 16.5493 20.1563L11.8875 17.7248C11.7254 17.6385 11.5455 17.5922 11.3613 17.587H11.076C10.9771 17.6017 10.8802 17.6333 10.7918 17.6817L6.12897 20.1247C5.89846 20.2405 5.63743 20.2815 5.38165 20.2405C4.75854 20.1226 4.34278 19.5289 4.44487 18.9027L5.38165 13.7241C5.44375 13.3462 5.3185 12.962 5.04589 12.6936L1.24509 9.00964C0.927214 8.70124 0.816695 8.23811 0.961949 7.82025C1.10299 7.40343 1.46297 7.09924 1.89768 7.03083L7.1289 6.27193C7.52677 6.23088 7.87622 5.98879 8.05516 5.63092L10.3603 0.904919C10.415 0.799663 10.4855 0.702827 10.5708 0.620728L10.6655 0.547048C10.715 0.492315 10.7718 0.447055 10.835 0.410215L10.9497 0.368113L11.1286 0.294434H11.5718C11.9675 0.335483 12.3159 0.57231 12.498 0.92597L14.8337 5.63092C15.0021 5.97511 15.3294 6.21404 15.7073 6.27193L20.9385 7.03083C21.3806 7.09398 21.75 7.39922 21.8963 7.82025C22.0342 8.24232 21.9153 8.70545 21.5911 9.00964L17.6545 12.7357Z" fill="#010F58"/>
</svg>
