<svg width="31" height="32" viewBox="0 0 31 32" fill="none" xmlns="http://www.w3.org/2000/svg">
<path d="M4.38782 0.233398C1.96766 0.233398 0 2.21237 0 4.64643V26.7116C0 29.1457 1.96766 31.1246 4.38782 31.1246H26.3269C28.7471 31.1246 30.7147 29.1457 30.7147 26.7116V4.64643C30.7147 2.21237 28.7471 0.233398 26.3269 0.233398H4.38782ZM23.1046 12.4382L14.329 21.2643C13.6845 21.9124 12.6424 21.9124 12.0048 21.2643L7.61697 16.8512C6.97251 16.2031 6.97251 15.155 7.61697 14.5137C8.26144 13.8724 9.30354 13.8655 9.94115 14.5137L13.1634 17.7545L20.7736 10.0938C21.418 9.44561 22.4601 9.44561 23.0977 10.0938C23.7353 10.7419 23.7422 11.79 23.0977 12.4313L23.1046 12.4382Z" fill="#010F58"/>
</svg>
