<svg width="17" height="19" viewBox="0 0 17 19" fill="none" xmlns="http://www.w3.org/2000/svg">
<path d="M5.2342 0.681641C5.83372 0.681641 6.31808 1.166 6.31808 1.76552V2.8494H10.6536V1.76552C10.6536 1.166 11.138 0.681641 11.7375 0.681641C12.337 0.681641 12.8214 1.166 12.8214 1.76552V2.8494H14.4472C15.3448 2.8494 16.073 3.57763 16.073 4.47522V6.10104H0.898682V4.47522C0.898682 3.57763 1.62691 2.8494 2.5245 2.8494H4.15032V1.76552C4.15032 1.166 4.63468 0.681641 5.2342 0.681641ZM0.898682 7.18492H16.073V16.3979C16.073 17.2955 15.3448 18.0237 14.4472 18.0237H2.5245C1.62691 18.0237 0.898682 17.2955 0.898682 16.3979V7.18492ZM3.06644 9.89462V10.9785C3.06644 11.2766 3.31031 11.5204 3.60838 11.5204H4.69226C4.99033 11.5204 5.2342 11.2766 5.2342 10.9785V9.89462C5.2342 9.59655 4.99033 9.35268 4.69226 9.35268H3.60838C3.31031 9.35268 3.06644 9.59655 3.06644 9.89462ZM7.40196 9.89462V10.9785C7.40196 11.2766 7.64583 11.5204 7.9439 11.5204H9.02778C9.32585 11.5204 9.56972 11.2766 9.56972 10.9785V9.89462C9.56972 9.59655 9.32585 9.35268 9.02778 9.35268H7.9439C7.64583 9.35268 7.40196 9.59655 7.40196 9.89462ZM12.2794 9.35268C11.9814 9.35268 11.7375 9.59655 11.7375 9.89462V10.9785C11.7375 11.2766 11.9814 11.5204 12.2794 11.5204H13.3633C13.6614 11.5204 13.9052 11.2766 13.9052 10.9785V9.89462C13.9052 9.59655 13.6614 9.35268 13.3633 9.35268H12.2794ZM3.06644 14.2301V15.314C3.06644 15.6121 3.31031 15.856 3.60838 15.856H4.69226C4.99033 15.856 5.2342 15.6121 5.2342 15.314V14.2301C5.2342 13.9321 4.99033 13.6882 4.69226 13.6882H3.60838C3.31031 13.6882 3.06644 13.9321 3.06644 14.2301ZM7.9439 13.6882C7.64583 13.6882 7.40196 13.9321 7.40196 14.2301V15.314C7.40196 15.6121 7.64583 15.856 7.9439 15.856H9.02778C9.32585 15.856 9.56972 15.6121 9.56972 15.314V14.2301C9.56972 13.9321 9.32585 13.6882 9.02778 13.6882H7.9439ZM11.7375 14.2301V15.314C11.7375 15.6121 11.9814 15.856 12.2794 15.856H13.3633C13.6614 15.856 13.9052 15.6121 13.9052 15.314V14.2301C13.9052 13.9321 13.6614 13.6882 13.3633 13.6882H12.2794C11.9814 13.6882 11.7375 13.9321 11.7375 14.2301Z" fill="#FF5017"/>
</svg>
