<svg width="50" height="51" viewBox="0 0 50 51" fill="none" xmlns="http://www.w3.org/2000/svg">
<rect y="0.740234" width="50" height="50" rx="5" fill="#FF5017"/>
<path d="M26.4829 21.2924H23.5176V24.2576H26.4829V21.2924ZM32.4133 21.2924H29.4481V24.2576H32.4133V21.2924ZM36.8611 30.9294C35.0079 30.9294 33.2287 30.6329 31.5682 30.0843C31.0493 29.9212 30.4711 30.0398 30.056 30.4401L26.7942 33.7019C22.5984 31.5669 19.1588 28.1421 17.0238 23.9463L20.2855 20.6697C20.7007 20.2694 20.8193 19.6912 20.6562 19.1723C20.1076 17.5117 19.8111 15.7326 19.8111 13.8793C19.8111 13.0639 19.1439 12.3967 18.3285 12.3967H13.1394C12.3239 12.3967 11.6567 13.0639 11.6567 13.8793C11.6567 27.8011 22.9394 39.0837 36.8611 39.0837C37.6766 39.0837 38.3438 38.4166 38.3438 37.6011V32.412C38.3438 31.5966 37.6766 30.9294 36.8611 30.9294ZM35.3785 21.2924V24.2576H38.3438V21.2924H35.3785Z" fill="#F8FAFA"/>
</svg>
