<svg width="51" height="50" viewBox="0 0 51 50" fill="none" xmlns="http://www.w3.org/2000/svg">
<circle cx="25.281" cy="25" r="25" fill="#F8FAFA"/>
<path d="M20.6533 14.8008C20.9059 14.9071 21.1852 14.9735 21.4112 15.1264C21.8501 15.4187 22.0695 15.8639 22.0894 16.3955C22.1227 17.3058 22.1892 18.2095 22.4086 19.0998C22.495 19.4586 22.608 19.8174 22.6945 20.1762C22.8341 20.7277 22.7011 21.2194 22.3554 21.6646C21.7836 22.4022 21.2251 23.153 20.6666 23.9039C20.6333 23.9437 20.6333 24.0434 20.6599 24.0966C21.8301 26.3358 23.4857 28.1165 25.6997 29.3524C25.8926 29.4654 26.0987 29.6647 26.2915 29.6514C26.4843 29.6381 26.6572 29.4189 26.8367 29.2793C27.4683 28.8009 28.0867 28.3159 28.725 27.8441C29.1239 27.5517 29.5893 27.472 30.068 27.585C30.6066 27.7112 31.1385 27.8906 31.6904 27.977C32.3818 28.0833 33.0866 28.1431 33.7847 28.183C34.6025 28.2295 35.1943 28.6547 35.4071 29.4056C35.4536 29.585 35.4735 29.771 35.4735 29.9571C35.4802 31.1132 35.4602 32.2694 35.4802 33.4255C35.4935 34.3691 34.8818 35.0668 34.0773 35.1797C34.064 35.1797 34.0573 35.193 34.044 35.1996C33.7116 35.1996 33.3792 35.1996 33.0467 35.1996C32.9802 35.1864 32.9204 35.1797 32.8539 35.1731C32.1159 35.0867 31.3779 35.0402 30.6465 34.9206C28.6053 34.5883 26.6838 33.9106 24.8753 32.9139C22.0096 31.3325 19.7025 29.1597 17.9605 26.3889C16.4313 23.9769 15.5204 21.3523 15.2012 18.5151C15.1547 18.0898 15.1214 17.658 15.0815 17.2327C15.0815 16.9005 15.0815 16.5682 15.0815 16.236C15.1946 15.9769 15.281 15.6912 15.4273 15.452C15.6799 15.0666 16.0789 14.9004 16.5177 14.8008C17.894 14.8008 19.277 14.8008 20.6533 14.8008Z" fill="#FF5017"/>
</svg>
