<svg width="209" height="209" viewBox="0 0 209 209" fill="none" xmlns="http://www.w3.org/2000/svg">
<g clip-path="url(#clip0_3_2262)">
<path opacity="0.45" d="M29.1915 104.414C29.1915 146.627 63.4184 180.854 105.632 180.854C147.845 180.854 182.072 146.627 182.072 104.414C182.072 62.2006 147.845 27.9737 105.632 27.9737C63.4184 27.9737 29.1915 62.2006 29.1915 104.414ZM21.5574 104.414C21.5574 57.9857 59.187 20.3396 105.632 20.3396C152.06 20.3396 189.706 57.9692 189.706 104.414C189.706 150.842 152.076 188.488 105.632 188.488C59.2035 188.488 21.5574 150.859 21.5574 104.414Z" stroke="#010F58"/>
<path opacity="0.432" d="M29.0416 104.414C29.0416 146.711 63.3351 181.004 105.632 181.004C147.928 181.004 182.205 146.71 182.222 104.414C182.222 62.1174 147.928 27.8238 105.632 27.8238C63.3351 27.8238 29.0416 62.1174 29.0416 104.414ZM21.6575 104.414C21.6575 58.0359 59.2537 20.4397 105.632 20.4397C151.993 20.4397 189.589 58.0358 189.606 104.414C189.606 150.792 152.01 188.388 105.632 188.388C59.2537 188.388 21.6575 150.792 21.6575 104.414Z" stroke="#010F58"/>
<path opacity="0.414" d="M28.9082 104.414C28.9082 146.794 63.2518 181.137 105.632 181.137C147.995 181.137 182.355 146.794 182.355 104.414C182.355 62.0341 148.012 27.6905 105.632 27.6905C63.2518 27.6905 28.9082 62.0341 28.9082 104.414ZM21.7742 104.414C21.7742 58.1026 59.3204 20.5564 105.632 20.5564C151.926 20.5564 189.473 58.1025 189.489 104.414C189.489 150.725 151.943 188.272 105.632 188.272C59.3204 188.272 21.7742 150.725 21.7742 104.414Z" stroke="#010F58"/>
<path opacity="0.396" d="M28.7747 104.414C28.7747 146.86 63.1849 181.271 105.632 181.271C148.078 181.271 182.488 146.86 182.488 104.414C182.488 61.9672 148.078 27.5569 105.632 27.5569C63.1849 27.5569 28.7747 61.9672 28.7747 104.414ZM21.8906 104.414C21.8906 58.1691 59.3868 20.6729 105.632 20.6729C151.876 20.6729 189.356 58.1689 189.372 104.414C189.372 150.658 151.876 188.155 105.632 188.155C59.3868 188.155 21.8906 150.658 21.8906 104.414Z" stroke="#010F58"/>
<path opacity="0.378" d="M28.6247 104.414C28.6247 146.944 63.1016 181.421 105.632 181.421C148.145 181.421 182.622 146.944 182.638 104.414C182.638 61.8838 148.161 27.4069 105.632 27.4069C63.1016 27.4069 28.6247 61.8838 28.6247 104.414ZM22.0073 104.414C22.0073 58.2357 59.4535 20.7896 105.632 20.7896C151.809 20.7896 189.239 58.2356 189.256 104.414C189.256 150.592 151.81 188.038 105.632 188.038C59.4535 188.038 22.0073 150.592 22.0073 104.414Z" stroke="#010F58"/>
<path opacity="0.36" d="M28.4914 104.414C28.4914 147.01 63.0182 181.554 105.632 181.554C148.228 181.554 182.772 147.027 182.772 104.414C182.772 61.8173 148.245 27.2736 105.632 27.2736C63.035 27.2736 28.4914 61.8004 28.4914 104.414ZM22.124 104.414C22.124 58.2858 59.5035 20.9062 105.632 20.9062C151.743 20.9062 189.139 58.3024 189.139 104.414C189.139 150.542 151.76 187.921 105.632 187.921C59.5035 187.921 22.124 150.542 22.124 104.414Z" stroke="#010F58"/>
<path opacity="0.342" d="M28.3414 104.414C28.3414 147.111 62.9517 181.704 105.632 181.704C148.311 181.704 182.922 147.111 182.922 104.414C182.922 61.7171 148.311 27.1236 105.632 27.1236C62.935 27.1236 28.3414 61.7172 28.3414 104.414ZM22.2407 104.414C22.2407 58.3525 59.5702 21.0229 105.632 21.0229C151.676 21.0229 189.022 58.3525 189.022 104.414C189.022 150.475 151.693 187.805 105.632 187.805C59.5702 187.805 22.2407 150.475 22.2407 104.414Z" stroke="#010F58"/>
<path opacity="0.324" d="M28.208 104.414C28.208 147.177 62.8683 181.837 105.632 181.837C148.378 181.837 183.055 147.177 183.055 104.414C183.055 61.6506 148.395 26.9903 105.632 26.9903C62.8683 26.9903 28.208 61.6506 28.208 104.414ZM22.3574 104.414C22.3574 58.4192 59.6369 21.1396 105.632 21.1396C151.61 21.1396 188.906 58.4192 188.906 104.414C188.906 150.409 151.626 187.688 105.632 187.688C59.6369 187.688 22.3574 150.409 22.3574 104.414Z" stroke="#010F58"/>
<path opacity="0.306" d="M28.0747 104.414C28.0747 147.244 62.8017 181.971 105.632 181.971C148.462 181.971 183.189 147.244 183.189 104.414C183.189 61.5839 148.462 26.8569 105.632 26.8569C62.8017 26.8569 28.0747 61.5839 28.0747 104.414ZM22.4741 104.414C22.4741 58.4859 59.7036 21.2563 105.632 21.2563C151.56 21.2563 188.789 58.4859 188.789 104.414C188.789 150.342 151.56 187.571 105.632 187.571C59.7036 187.571 22.4741 150.342 22.4741 104.414Z" stroke="#010F58"/>
<path opacity="0.288" d="M27.9247 104.414C27.9247 147.327 62.7183 182.121 105.632 182.121C148.545 182.121 183.322 147.327 183.339 104.414C183.339 61.5006 148.545 26.7069 105.632 26.7069C62.7183 26.7069 27.9247 61.5006 27.9247 104.414ZM22.5908 104.414C22.5908 58.5525 59.7703 21.373 105.632 21.373C151.493 21.373 188.673 58.5525 188.673 104.414C188.673 150.275 151.493 187.455 105.632 187.455C59.7703 187.455 22.5908 150.275 22.5908 104.414Z" stroke="#010F58"/>
<path opacity="0.27" d="M27.7915 104.414C27.7915 147.411 62.6351 182.254 105.632 182.254C148.612 182.254 183.472 147.411 183.472 104.414C183.472 61.4173 148.628 26.5737 105.632 26.5737C62.6351 26.5737 27.7915 61.4173 27.7915 104.414ZM22.6909 104.414C22.6909 58.6026 59.8204 21.4731 105.632 21.4731C151.426 21.4731 188.556 58.6026 188.573 104.414C188.573 150.225 151.443 187.355 105.632 187.355C59.8204 187.355 22.6909 150.225 22.6909 104.414Z" stroke="#010F58"/>
<path opacity="0.252" d="M27.6579 104.414C27.6579 147.477 62.5682 182.387 105.632 182.387C148.695 182.387 183.605 147.477 183.605 104.414C183.605 61.3504 148.695 26.4401 105.632 26.4401C62.5682 26.4401 27.6579 61.3504 27.6579 104.414ZM22.8074 104.414C22.8074 58.6691 59.8869 21.5896 105.632 21.5896C151.36 21.5896 188.456 58.6692 188.456 104.414C188.456 150.158 151.376 187.238 105.632 187.238C59.8869 187.238 22.8074 150.158 22.8074 104.414Z" stroke="#010F58"/>
<path opacity="0.234" d="M27.5079 104.414C27.5079 147.56 62.4849 182.537 105.632 182.537C148.762 182.537 183.738 147.56 183.755 104.414C183.755 61.2671 148.778 26.2901 105.632 26.2901C62.4849 26.2901 27.5079 61.2671 27.5079 104.414ZM22.9241 104.414C22.9241 58.7358 59.9536 21.7063 105.632 21.7063C151.293 21.7063 188.339 58.7359 188.339 104.414C188.339 150.092 151.31 187.121 105.632 187.121C59.9536 187.121 22.9241 150.092 22.9241 104.414Z" stroke="#010F58"/>
<path opacity="0.216" d="M27.3746 104.414C27.3746 147.627 62.4182 182.671 105.632 182.671C148.845 182.671 183.889 147.627 183.889 104.414C183.889 61.2005 148.845 26.1568 105.632 26.1568C62.4182 26.1568 27.3746 61.2005 27.3746 104.414ZM23.0408 104.414C23.0408 58.8025 60.0203 21.823 105.632 21.823C151.243 21.823 188.206 58.8024 188.222 104.414C188.222 150.025 151.243 187.005 105.632 187.005C60.0203 187.005 23.0408 150.025 23.0408 104.414Z" stroke="#010F58"/>
<path opacity="0.198" d="M27.2246 104.414C27.2246 147.727 62.335 182.821 105.632 182.821C148.928 182.821 184.039 147.727 184.039 104.414C184.039 61.1004 148.928 26.0068 105.632 26.0068C62.3182 26.0068 27.2246 61.1005 27.2246 104.414ZM23.1575 104.414C23.1575 58.8692 60.0869 21.9397 105.632 21.9397C151.176 21.9397 188.106 58.8692 188.106 104.414C188.106 149.958 151.176 186.888 105.632 186.888C60.0869 186.888 23.1575 149.958 23.1575 104.414Z" stroke="#010F58"/>
<path opacity="0.18" d="M27.0913 104.414C27.0913 147.794 62.2516 182.954 105.632 182.954C148.995 182.954 184.155 147.794 184.172 104.414C184.172 61.0338 149.012 25.8735 105.632 25.8735C62.2516 25.8735 27.0913 61.0338 27.0913 104.414ZM23.2742 104.414C23.2742 58.9358 60.137 22.0564 105.632 22.0564C151.11 22.0564 187.989 58.9193 187.989 104.414C187.989 149.892 151.11 186.771 105.632 186.771C60.1536 186.771 23.2742 149.908 23.2742 104.414Z" stroke="#010F58"/>
<path opacity="0.162" d="M26.9579 104.414C26.9579 147.861 62.1849 183.088 105.632 183.088C149.078 183.088 184.305 147.861 184.305 104.414C184.305 60.9672 149.078 25.7402 105.632 25.7402C62.1849 25.7402 26.9579 60.9672 26.9579 104.414ZM23.3909 104.414C23.3909 59.0025 60.2037 22.1731 105.632 22.1731C151.043 22.1731 187.872 58.986 187.872 104.414C187.872 149.825 151.06 186.655 105.632 186.655C60.2203 186.655 23.3909 149.842 23.3909 104.414Z" stroke="#010F58"/>
<path opacity="0.144" d="M26.808 104.414C26.808 147.944 62.1016 183.238 105.632 183.238C149.145 183.238 184.455 147.944 184.455 104.414C184.455 60.8839 149.162 25.5902 105.632 25.5902C62.1016 25.5902 26.808 60.8839 26.808 104.414ZM23.5076 104.414C23.5076 59.0692 60.2704 22.2898 105.632 22.2898C150.976 22.2898 187.756 59.0527 187.756 104.414C187.756 149.759 150.993 186.538 105.632 186.538C60.287 186.538 23.5076 149.775 23.5076 104.414Z" stroke="#010F58"/>
<path opacity="0.126" d="M26.6747 104.414C26.6747 148.027 62.0184 183.371 105.632 183.371C149.228 183.371 184.589 148.027 184.589 104.414C184.589 60.8006 149.245 25.4569 105.632 25.4569C62.0184 25.4569 26.6747 60.8006 26.6747 104.414ZM23.6077 104.414C23.6077 59.1028 60.3371 22.3899 105.632 22.3899C150.926 22.3899 187.639 59.1192 187.656 104.414C187.656 149.725 150.926 186.438 105.632 186.438C60.3205 186.438 23.6077 149.709 23.6077 104.414Z" stroke="#010F58"/>
<path opacity="0.108" d="M26.5411 104.414C26.5411 148.094 61.9515 183.504 105.632 183.504C149.312 183.504 184.722 148.094 184.722 104.414C184.722 60.7337 149.312 25.3234 105.632 25.3234C61.9515 25.3234 26.5411 60.7337 26.5411 104.414ZM23.7241 104.414C23.7241 59.1692 60.4035 22.5063 105.632 22.5063C150.859 22.5063 187.522 59.1857 187.539 104.414C187.539 149.658 150.86 186.321 105.632 186.321C60.387 186.321 23.7241 149.642 23.7241 104.414Z" stroke="#010F58"/>
<path opacity="0.09" d="M26.3911 104.414C26.3911 148.177 61.8682 183.654 105.632 183.654C149.378 183.654 184.872 148.177 184.872 104.414C184.872 60.6504 149.395 25.1734 105.632 25.1734C61.8682 25.1734 26.3911 60.6504 26.3911 104.414ZM23.8408 104.414C23.8408 59.2358 60.4536 22.623 105.632 22.623C150.793 22.623 187.406 59.2358 187.422 104.414C187.422 149.592 150.809 186.205 105.632 186.205C60.4536 186.205 23.8408 149.592 23.8408 104.414Z" stroke="#010F58"/>
<path opacity="0.072" d="M26.2578 104.414C26.2578 148.244 61.8015 183.788 105.632 183.788C149.462 183.788 185.005 148.244 185.005 104.414C185.005 60.5837 149.462 25.04 105.632 25.04C61.7848 25.04 26.2578 60.5838 26.2578 104.414ZM23.9575 104.414C23.9575 59.3025 60.5203 22.7397 105.632 22.7397C150.726 22.7397 187.289 59.3025 187.306 104.414C187.306 149.525 150.743 186.088 105.632 186.088C60.5203 186.088 23.9575 149.525 23.9575 104.414Z" stroke="#010F58"/>
<path opacity="0.054" d="M26.1245 104.414C26.1245 148.327 61.7182 183.921 105.632 183.921C149.545 183.921 185.139 148.327 185.139 104.414C185.139 60.5004 149.545 24.9067 105.632 24.9067C61.7182 24.9067 26.1245 60.5004 26.1245 104.414ZM24.0742 104.414C24.0742 59.3692 60.587 22.8564 105.632 22.8564C150.66 22.8564 187.189 59.3693 187.189 104.414C187.189 149.458 150.676 185.971 105.632 185.971C60.587 185.971 24.0742 149.458 24.0742 104.414Z" stroke="#010F58"/>
<path opacity="0.036" d="M25.9745 104.414C25.9745 148.411 61.6349 184.071 105.632 184.071C149.612 184.071 185.272 148.411 185.289 104.414C185.289 60.4171 149.628 24.7567 105.632 24.7567C61.6349 24.7567 25.9745 60.4171 25.9745 104.414ZM24.1909 104.414C24.1909 59.4359 60.6537 22.9731 105.632 22.9731C150.61 22.9731 187.072 59.4359 187.072 104.414C187.072 149.392 150.61 185.855 105.632 185.855C60.6537 185.855 24.1909 149.392 24.1909 104.414Z" stroke="#010F58"/>
<path opacity="0.018" d="M25.8412 104.414C25.8412 148.477 61.5682 184.204 105.632 184.204C149.695 184.204 185.422 148.477 185.422 104.414C185.422 60.3505 149.695 24.6234 105.632 24.6234C61.5682 24.6234 25.8412 60.3505 25.8412 104.414ZM24.3076 104.414C24.3076 59.5026 60.7204 23.0898 105.632 23.0898C150.543 23.0898 186.956 59.5026 186.956 104.414C186.956 149.325 150.543 185.738 105.632 185.738C60.7204 185.738 24.3076 149.325 24.3076 104.414Z" stroke="#010F58"/>
<path opacity="0.52" d="M195.162 52.9769L194.412 51.6777L188.912 54.853L189.662 56.1522L195.162 52.9769Z" fill="#FF5017"/>
<path opacity="0.42" d="M189.298 43.7887L188.416 42.5752L183.279 46.3083L184.161 47.5218L189.298 43.7887Z" fill="#FF5017"/>
<path opacity="0.32" d="M182.494 35.2621L181.49 34.1472L176.771 38.3967L177.775 39.5116L182.494 35.2621Z" fill="#FF5017"/>
<path opacity="0.22" d="M174.83 27.5091L173.715 26.5054L169.466 31.2245L170.58 32.2282L174.83 27.5091Z" fill="#FF5017"/>
<path opacity="0.11" d="M166.399 20.5724L165.186 19.6907L161.453 24.828L162.667 25.7098L166.399 20.5724Z" fill="#FF5017"/>
<path opacity="0.02" d="M157.304 14.5717L156.005 13.8218L152.83 19.322L154.129 20.072L157.304 14.5717Z" fill="#FF5017"/>
<path opacity="0.02" d="M53.1414 13.8202L51.8423 14.5703L55.0176 20.0701L56.3167 19.32L53.1414 13.8202Z" fill="#FF5017"/>
<path opacity="0.11" d="M43.9417 19.6886L42.728 20.5703L46.4606 25.708L47.6742 24.8263L43.9417 19.6886Z" fill="#FF5017"/>
<path opacity="0.22" d="M35.4265 26.4925L34.3118 27.4963L38.5615 32.2152L39.6762 31.2113L35.4265 26.4925Z" fill="#FF5017"/>
<path opacity="0.32" d="M27.6538 34.1496L26.6499 35.2644L31.3693 39.5141L32.3732 38.3992L27.6538 34.1496Z" fill="#FF5017"/>
<path opacity="0.42" d="M20.7254 42.5771L19.8435 43.7908L24.9812 47.524L25.8631 46.3103L20.7254 42.5771Z" fill="#FF5017"/>
<path opacity="0.52" d="M14.7239 51.6869L13.9739 52.9861L19.4735 56.1612L20.2236 54.8621L14.7239 51.6869Z" fill="#FF5017"/>
<path opacity="0.52" d="M9.69606 61.3534L9.08594 62.7239L14.8875 65.3067L15.4976 63.9363L9.69606 61.3534Z" fill="#FF5017"/>
<path opacity="0.52" d="M5.70718 71.5062L5.24365 72.9329L11.2831 74.8951L11.7466 73.4685L5.70718 71.5062Z" fill="#FF5017"/>
<path opacity="0.52" d="M2.81482 82.0239L2.50293 83.4912L8.71439 84.8115L9.02628 83.3443L2.81482 82.0239Z" fill="#FF5017"/>
<path opacity="0.52" d="M1.03892 92.7906L0.88208 94.2825L7.19781 94.9464L7.35465 93.4545L1.03892 92.7906Z" fill="#FF5017"/>
<path opacity="0.52" d="M0.406887 103.674L0.406738 105.174L6.75748 105.175L6.75763 103.675L0.406887 103.674Z" fill="#FF5017"/>
<path opacity="0.52" d="M0.865153 114.568L1.02197 116.06L7.3374 115.396L7.18058 113.905L0.865153 114.568Z" fill="#FF5017"/>
<path opacity="0.52" d="M2.49965 125.333L2.81152 126.8L9.02295 125.48L8.71108 124.012L2.49965 125.333Z" fill="#FF5017"/>
<path opacity="0.52" d="M5.26905 135.89L5.73267 137.317L11.7727 135.354L11.309 133.928L5.26905 135.89Z" fill="#FF5017"/>
<path opacity="0.52" d="M9.09381 146.107L9.70386 147.478L15.5055 144.895L14.8954 143.525L9.09381 146.107Z" fill="#FF5017"/>
<path opacity="0.52" d="M13.9682 155.857L14.7183 157.156L20.218 153.981L19.4679 152.682L13.9682 155.857Z" fill="#FF5017"/>
<path opacity="0.52" d="M19.8264 165.034L20.7083 166.247L25.8456 162.514L24.9638 161.301L19.8264 165.034Z" fill="#FF5017"/>
<path opacity="0.52" d="M26.6485 173.552L27.6523 174.667L32.3721 170.417L31.3682 169.302L26.6485 173.552Z" fill="#FF5017"/>
<path opacity="0.52" d="M34.2853 181.329L35.4001 182.333L39.6489 177.613L38.534 176.609L34.2853 181.329Z" fill="#FF5017"/>
<path opacity="0.52" d="M42.7203 188.272L43.9338 189.154L47.6665 184.016L46.4529 183.135L42.7203 188.272Z" fill="#FF5017"/>
<path opacity="0.52" d="M51.8208 194.246L53.1201 194.996L56.2949 189.496L54.9957 188.746L51.8208 194.246Z" fill="#FF5017"/>
<path opacity="0.52" d="M61.4984 199.284L62.8689 199.894L65.4518 194.092L64.0813 193.482L61.4984 199.284Z" fill="#FF5017"/>
<path opacity="0.52" d="M71.6681 203.268L73.0947 203.731L75.057 197.692L73.6304 197.228L71.6681 203.268Z" fill="#FF5017"/>
<path opacity="0.52" d="M82.1804 206.18L83.6477 206.492L84.968 200.28L83.5008 199.968L82.1804 206.18Z" fill="#FF5017"/>
<path opacity="0.52" d="M92.9165 207.955L94.4084 208.112L95.0724 201.796L93.5805 201.639L92.9165 207.955Z" fill="#FF5017"/>
<path opacity="0.52" d="M103.818 208.588L105.318 208.588L105.318 202.237L103.818 202.237L103.818 208.588Z" fill="#FF5017"/>
<path opacity="0.52" d="M114.701 208.102L116.193 207.945L115.528 201.629L114.036 201.786L114.701 208.102Z" fill="#FF5017"/>
<path opacity="0.52" d="M125.488 206.471L126.955 206.159L125.634 199.947L124.167 200.259L125.488 206.471Z" fill="#FF5017"/>
<path opacity="0.52" d="M136.057 203.709L137.483 203.245L135.522 197.205L134.095 197.669L136.057 203.709Z" fill="#FF5017"/>
<path opacity="0.52" d="M146.252 199.904L147.623 199.294L145.04 193.493L143.669 194.103L146.252 199.904Z" fill="#FF5017"/>
<path opacity="0.52" d="M155.999 195.008L157.298 194.258L154.123 188.758L152.823 189.508L155.999 195.008Z" fill="#FF5017"/>
<path opacity="0.52" d="M165.193 189.136L166.407 188.254L162.674 183.117L161.461 183.998L165.193 189.136Z" fill="#FF5017"/>
<path opacity="0.52" d="M173.728 182.336L174.842 181.332L170.593 176.613L169.478 177.617L173.728 182.336Z" fill="#FF5017"/>
<path opacity="0.52" d="M181.48 174.685L182.483 173.57L177.764 169.32L176.76 170.435L181.48 174.685Z" fill="#FF5017"/>
<path opacity="0.52" d="M188.399 166.262L189.281 165.049L184.143 161.316L183.261 162.529L188.399 166.262Z" fill="#FF5017"/>
<path opacity="0.52" d="M194.41 157.15L195.16 155.851L189.661 152.676L188.911 153.975L194.41 157.15Z" fill="#FF5017"/>
<path opacity="0.52" d="M199.422 147.477L200.032 146.107L194.231 143.524L193.621 144.894L199.422 147.477Z" fill="#FF5017"/>
<path opacity="0.52" d="M203.415 137.307L203.879 135.88L197.839 133.918L197.376 135.345L203.415 137.307Z" fill="#FF5017"/>
<path opacity="0.52" d="M206.317 126.818L206.629 125.351L200.417 124.031L200.105 125.498L206.317 126.818Z" fill="#FF5017"/>
<path opacity="0.52" d="M208.093 116.053L208.25 114.561L201.935 113.897L201.778 115.389L208.093 116.053Z" fill="#FF5017"/>
<path opacity="0.52" d="M208.734 105.172L208.734 103.672L202.384 103.671L202.383 105.172L208.734 105.172Z" fill="#FF5017"/>
<path opacity="0.52" d="M208.25 94.2689L208.094 92.7771L201.778 93.441L201.935 94.9328L208.25 94.2689Z" fill="#FF5017"/>
<path opacity="0.52" d="M206.61 83.4964L206.298 82.0291L200.086 83.3488L200.398 84.8161L206.61 83.4964Z" fill="#FF5017"/>
<path opacity="0.52" d="M203.885 72.9426L203.421 71.5159L197.381 73.4785L197.845 74.9053L203.885 72.9426Z" fill="#FF5017"/>
<path opacity="0.52" d="M200.043 62.7369L199.433 61.3665L193.631 63.949L194.241 65.3195L200.043 62.7369Z" fill="#FF5017"/>
<path d="M62.4288 94.113C60.6621 92.4797 58.5288 91.813 56.1955 91.8463C53.6288 91.7797 51.1288 92.613 49.3288 94.7463C47.6621 96.713 47.2955 98.6797 47.2955 101.346V107.246C47.2955 110.213 47.6955 112.446 49.8955 114.513C51.4288 116.013 53.5955 116.813 55.6621 116.746C57.7621 116.813 59.9288 116.013 61.4621 114.546C63.0288 113.08 63.9955 110.913 64.0288 108.746C64.0955 106.38 63.3288 104.446 61.5955 102.846C60.1288 101.58 58.1955 100.913 56.3621 100.913C54.7621 100.913 53.1955 101.446 51.9288 102.413V101.346C51.9288 100.346 51.8955 99.5463 52.2621 98.713C52.8621 97.1463 54.4955 96.0797 56.1955 96.0797C57.2955 96.0797 58.3955 96.5463 59.1955 97.3463L62.4288 94.113ZM58.3288 111.38C57.6288 112.08 56.6621 112.513 55.6621 112.48C54.6955 112.513 53.7288 112.08 53.0288 111.38C52.3288 110.713 51.9288 109.713 51.9288 108.746C51.9288 107.746 52.3288 106.78 53.0288 106.08C53.7288 105.38 54.6955 104.98 55.6955 104.98C56.6621 104.98 57.6288 105.38 58.3288 106.08C59.0288 106.78 59.4288 107.746 59.4288 108.746C59.4288 109.746 59.0288 110.713 58.3288 111.38ZM70.1913 116.313H74.7913L82.8246 96.5797V92.313H67.6913V96.5797H78.258L70.1913 116.313ZM87.1163 98.713C87.1496 99.5797 87.283 100.58 87.7163 101.58C88.0163 102.246 88.483 102.846 88.983 103.413C88.1496 104.146 87.483 105.08 87.083 106.046C86.6496 107.113 86.483 108.146 86.483 109.113C86.483 111.346 87.4496 113.546 89.1496 114.946C90.6163 116.18 92.783 116.813 94.8496 116.813C96.8496 116.813 98.983 116.28 100.583 114.946C102.35 113.513 103.15 111.446 103.25 109.113C103.216 108.146 103.083 107.113 102.65 106.046C102.25 105.08 101.583 104.146 100.75 103.413C101.25 102.846 101.683 102.246 101.983 101.58C102.45 100.58 102.583 99.5797 102.583 98.713C102.583 96.5797 101.65 94.5463 99.9496 93.313C98.583 92.2463 96.7496 91.813 94.8496 91.813C93.083 91.813 91.2163 92.213 89.783 93.313C88.0163 94.5797 87.2163 96.4463 87.1163 98.713ZM91.9163 98.713C91.9163 97.913 92.1496 97.213 92.7163 96.7463C93.2496 96.2797 94.0496 96.0797 94.8496 96.0463C95.683 96.0797 96.483 96.2797 97.0163 96.7463C97.5496 97.213 97.8163 97.913 97.783 98.713C97.8163 99.513 97.5496 100.213 97.0163 100.68C96.483 101.146 95.683 101.346 94.8496 101.346C94.0496 101.346 93.2496 101.146 92.7163 100.68C92.1496 100.213 91.9163 99.513 91.9163 98.713ZM97.483 111.646C96.8496 112.246 95.8496 112.546 94.8496 112.546C93.8496 112.546 92.883 112.246 92.2163 111.646C91.5496 111.013 91.283 110.08 91.283 109.113C91.283 108.113 91.5496 107.18 92.2163 106.58C92.883 105.946 93.8496 105.646 94.8496 105.646C95.8496 105.646 96.8496 105.946 97.483 106.58C98.1496 107.18 98.4496 108.113 98.4496 109.113C98.4496 110.08 98.1496 111.013 97.483 111.646ZM121.443 108.346V102.346H116.843V108.346H111.277L118.843 92.313H114.143L106.577 108.346V112.58H116.843V116.313H121.443V112.58H123.577V108.346H121.443ZM128.177 92.313L127.443 104.646L131.343 106.88C131.477 106.613 131.677 106.346 131.91 106.113C132.61 105.413 133.577 105.013 134.543 105.013C135.543 105.013 136.51 105.413 137.21 106.113C137.91 106.813 138.31 107.78 138.31 108.746C138.31 109.746 137.91 110.713 137.21 111.413C136.51 112.08 135.543 112.48 134.543 112.48C133.577 112.48 132.61 112.08 131.91 111.38C131.443 110.946 131.11 110.346 130.943 109.713L126.577 110.88C126.977 112.28 127.743 113.546 128.777 114.513C130.31 115.98 132.477 116.813 134.543 116.746C136.643 116.813 138.777 116.013 140.343 114.546C141.877 113.08 142.843 110.913 142.877 108.746C142.977 106.546 142.21 104.446 140.443 102.846C138.977 101.613 137.043 100.946 135.21 100.946C134.177 100.946 132.943 101.213 131.877 101.78L132.177 96.5463H140.777V92.313H128.177ZM169.191 105.046H162.958V98.813H159.458V105.046H153.191V108.546H159.458V114.813H162.958V108.546H169.191V105.046Z" fill="#FF5017"/>
</g>
<defs>
<clipPath id="clip0_3_2262">
<rect width="208.352" height="208.352" fill="white" transform="translate(0.388916 0.237793)"/>
</clipPath>
</defs>
</svg>
