<svg width="30" height="26" viewBox="0 0 30 26" fill="none" xmlns="http://www.w3.org/2000/svg">
<path d="M14.3898 24.1469C12.6932 24.4248 10.9561 24.3238 9.30303 23.8512C7.64999 23.3786 6.12201 22.5461 4.82862 21.4134C3.53523 20.2807 2.50848 18.8759 1.82199 17.2996C1.1355 15.7233 0.806279 14.0147 0.857928 12.2962C0.909577 10.5777 1.34082 8.89196 2.12073 7.35977C2.90064 5.82758 4.00991 4.48694 5.36899 3.43396C6.72807 2.38098 8.3033 1.64175 9.98173 1.26928C11.6602 0.896805 13.4002 0.900316 15.0771 1.27956" stroke="#F8FAFA"/>
<path d="M29.0028 13.3496C29.1981 13.1544 29.1981 12.8378 29.0028 12.6425L25.8208 9.46056C25.6255 9.2653 25.309 9.2653 25.1137 9.46056C24.9184 9.65582 24.9184 9.97241 25.1137 10.1677L27.9421 12.9961L25.1137 15.8245C24.9184 16.0198 24.9184 16.3364 25.1137 16.5316C25.309 16.7269 25.6255 16.7269 25.8208 16.5316L29.0028 13.3496ZM12.5559 13.4961L28.6492 13.4961L28.6492 12.4961L12.5559 12.4961L12.5559 13.4961Z" fill="#F8FAFA"/>
</svg>
