<svg width="26" height="19" viewBox="0 0 26 19" fill="none" xmlns="http://www.w3.org/2000/svg">
<path d="M12.7569 0.753906C6.97627 0.753906 2.03964 4.34944 0.0395508 9.4248C2.03964 14.5002 6.97627 18.0957 12.7569 18.0957C18.5375 18.0957 23.4741 14.5002 25.4742 9.4248C23.4741 4.34944 18.5375 0.753906 12.7569 0.753906ZM12.7569 15.2054C9.56598 15.2054 6.97627 12.6157 6.97627 9.4248C6.97627 6.23391 9.56598 3.64421 12.7569 3.64421C15.9478 3.64421 18.5375 6.23391 18.5375 9.4248C18.5375 12.6157 15.9478 15.2054 12.7569 15.2054ZM12.7569 5.95645C10.8377 5.95645 9.28851 7.50565 9.28851 9.4248C9.28851 11.344 10.8377 12.8932 12.7569 12.8932C14.676 12.8932 16.2252 11.344 16.2252 9.4248C16.2252 7.50565 14.676 5.95645 12.7569 5.95645Z" fill="#FF5017"/>
</svg>
