<svg width="157" height="50" viewBox="0 0 157 50" fill="none" xmlns="http://www.w3.org/2000/svg">
<path d="M41.484 49.8706V33.2075L70.4033 11.8947H86.3624L70.4033 0.12793L32.063 28.3761V49.8706H41.484Z" fill="#FF5017"/>
<path d="M10.2608 49.8706V33.2075L39.1802 11.8947L47.1468 17.7781L55.1392 11.8947L39.1802 0.12793L0.839844 28.3761V49.8706H10.2608Z" fill="#FF5017"/>
<path d="M67.1626 35.1814L72.1376 43.2314H76.2626L70.1626 33.8564L75.7626 25.2314H71.6626L67.1626 32.5564H64.6626V25.2314H61.2126V43.2314H64.6626V35.1814H67.1626ZM80.7517 33.7064C80.8267 33.5814 80.9267 33.4564 81.0267 33.3564C81.5517 32.7314 82.2767 32.5314 83.1517 32.5314C83.8517 32.5064 84.5267 32.6314 85.0767 32.9564C85.5767 33.2314 85.9517 33.6814 86.0767 34.2064L83.9017 34.5064C81.9767 34.8064 80.9267 34.8314 79.4267 35.6314C78.1517 36.3814 77.2517 37.8064 77.2517 39.2564C77.2517 40.4314 77.6017 41.1064 78.3017 42.0814C79.0267 42.9314 80.4017 43.5814 81.7267 43.5814C82.7517 43.5814 83.9267 43.3314 84.8767 42.7564C85.4767 42.4064 86.3017 41.6564 86.5517 40.9314V43.2314H89.5267V34.7564C89.5267 33.9314 89.3267 32.9314 88.8017 32.0564C87.7017 30.2064 85.7017 29.3814 83.2267 29.3814C81.0017 29.3814 79.1517 30.1064 77.9267 31.8314C77.8267 31.9564 77.7267 32.1314 77.6517 32.2314L80.7517 33.7064ZM86.1517 36.9314C86.1517 37.0564 86.1267 37.5564 85.9767 38.1064C85.5517 39.7314 83.8267 40.4314 82.4017 40.4814C81.3017 40.5314 80.5767 39.8314 80.6267 39.0314C80.6767 37.9564 82.2017 37.6814 83.6517 37.4064L86.1517 36.9314ZM101.092 29.7314L97.8923 39.0814L94.6673 29.7314H91.2673L96.1923 43.2314H99.5673L104.492 29.7314H101.092ZM106.752 24.8564V27.8564H110.152V24.8564H106.752ZM106.752 29.7314V43.2314H110.152V29.7314H106.752ZM124.733 30.8564C123.658 29.8814 122.058 29.3064 120.558 29.3564C119.333 29.4064 117.983 29.8064 116.908 30.6564V29.7314H113.908V43.2314H117.333V37.3564C117.333 36.4314 117.358 35.5064 117.483 34.9064C117.633 34.1564 117.983 33.5564 118.483 33.1814C118.933 32.8564 119.458 32.6814 120.083 32.6564C121.008 32.6564 121.733 32.9064 122.208 33.4064C122.908 34.1064 123.108 35.2564 123.108 36.4814V43.2314H126.558V36.4814C126.558 34.1314 126.333 32.3314 124.733 30.8564ZM132.314 33.7064C132.389 33.5814 132.489 33.4564 132.589 33.3564C133.114 32.7314 133.839 32.5314 134.714 32.5314C135.414 32.5064 136.089 32.6314 136.639 32.9564C137.139 33.2314 137.514 33.6814 137.639 34.2064L135.464 34.5064C133.539 34.8064 132.489 34.8314 130.989 35.6314C129.714 36.3814 128.814 37.8064 128.814 39.2564C128.814 40.4314 129.164 41.1064 129.864 42.0814C130.589 42.9314 131.964 43.5814 133.289 43.5814C134.314 43.5814 135.489 43.3314 136.439 42.7564C137.039 42.4064 137.864 41.6564 138.114 40.9314V43.2314H141.089V34.7564C141.089 33.9314 140.889 32.9314 140.364 32.0564C139.264 30.2064 137.264 29.3814 134.789 29.3814C132.564 29.3814 130.714 30.1064 129.489 31.8314C129.389 31.9564 129.289 32.1314 129.214 32.2314L132.314 33.7064ZM137.714 36.9314C137.714 37.0564 137.689 37.5564 137.539 38.1064C137.114 39.7314 135.389 40.4314 133.964 40.4814C132.864 40.5314 132.139 39.8314 132.189 39.0314C132.239 37.9564 133.764 37.6814 135.214 37.4064L137.714 36.9314ZM156.03 29.7314H152.18L149.48 33.7814L146.78 29.7314H142.93L147.68 36.3814L142.83 43.2314H146.705L149.48 39.0314L152.255 43.2314H156.155L151.28 36.3814L156.03 29.7314Z" fill="#F8FAFA"/>
</svg>
