<svg width="22" height="21" viewBox="0 0 22 21" fill="none" xmlns="http://www.w3.org/2000/svg">
<path opacity="0.4" d="M12.4529 0.940343L14.7966 5.65011C14.9693 5.99133 15.2988 6.2283 15.6789 6.28095L20.9432 7.04766C21.2506 7.09084 21.5296 7.25303 21.7181 7.50052C21.9044 7.74486 21.9844 8.05449 21.9392 8.35885C21.9023 8.61161 21.7834 8.84542 21.6012 9.02445L17.7867 12.7221C17.5077 12.9801 17.3814 13.3624 17.4487 13.7363L18.3879 18.9348C18.4879 19.5624 18.072 20.1543 17.4487 20.2733C17.1918 20.3144 16.9286 20.2712 16.697 20.1533L12.0013 17.7068C11.6528 17.5309 11.2411 17.5309 10.8926 17.7068L6.19685 20.1533C5.61988 20.4597 4.90499 20.2512 4.58387 19.6825C4.4649 19.4561 4.42278 19.198 4.46174 18.9463L5.40089 13.7469C5.46827 13.374 5.34087 12.9896 5.06292 12.7316L1.24842 9.03604C0.794635 8.59792 0.780948 7.8765 1.21788 7.42259C1.22736 7.41311 1.23789 7.40258 1.24842 7.39205C1.42951 7.20774 1.66745 7.09084 1.92435 7.0603L7.18864 6.29254C7.56767 6.23883 7.89721 6.00397 8.07093 5.66064L10.3304 0.940343C10.5315 0.535927 10.9484 0.28422 11.4011 0.294752H11.5422C11.9349 0.342144 12.2771 0.585426 12.4529 0.940343Z" fill="#010F58"/>
<path d="M11.4168 17.5756C11.2129 17.5819 11.0143 17.6367 10.8356 17.7347L6.16284 20.1756C5.59109 20.4485 4.90689 20.2367 4.58633 19.69C4.46757 19.4666 4.42447 19.2106 4.46441 18.9599L5.39771 13.7714C5.46077 13.3943 5.33465 13.0108 5.06033 12.7453L1.24412 9.05072C0.791138 8.6072 0.78273 7.87924 1.22626 7.42518C1.23256 7.41886 1.23782 7.41359 1.24412 7.40833C1.4249 7.22923 1.65822 7.11124 1.90941 7.07437L7.17812 6.299C7.55963 6.25053 7.8907 6.01244 8.05886 5.6669L10.349 0.88719C10.5666 0.50161 10.9838 0.271948 11.4252 0.296179C11.4168 0.609067 11.4168 17.3628 11.4168 17.5756Z" fill="#010F58"/>
</svg>
