<svg width="22" height="21" viewBox="0 0 22 21" fill="none" xmlns="http://www.w3.org/2000/svg">
<path opacity="0.4" d="M11.554 1.02482L13.8977 5.73458C14.0703 6.07581 14.3999 6.31277 14.78 6.36543L20.0442 7.13213C20.3517 7.17531 20.6307 7.3375 20.8191 7.58499C21.0055 7.82933 21.0855 8.13896 21.0402 8.44333C21.0034 8.69608 20.8844 8.92989 20.7023 9.10893L16.8878 12.8066C16.6088 13.0646 16.4824 13.4469 16.5498 13.8208L17.489 19.0192C17.589 19.6469 17.1731 20.2388 16.5498 20.3578C16.2929 20.3989 16.0297 20.3557 15.7981 20.2377L11.1023 17.7912C10.7538 17.6154 10.3422 17.6154 9.99367 17.7912L5.29792 20.2377C4.72096 20.5442 4.00607 20.3357 3.68494 19.767C3.56597 19.5405 3.52386 19.2825 3.56281 19.0308L4.50196 13.8313C4.56934 13.4585 4.44195 13.0741 4.16399 12.8161L0.349491 9.12051C-0.10429 8.68239 -0.117977 7.96097 0.318958 7.50706C0.328434 7.49758 0.338963 7.48705 0.349491 7.47652C0.530583 7.29221 0.768529 7.17531 1.02543 7.14477L6.28971 6.37701C6.66874 6.3233 6.99829 6.08844 7.17201 5.74511L9.43144 1.02482C9.63254 0.6204 10.0495 0.368693 10.5022 0.379224H10.6433C11.036 0.426617 11.3782 0.669899 11.554 1.02482Z" fill="#FF5017"/>
<path d="M10.5179 17.6601C10.314 17.6664 10.1154 17.7212 9.9367 17.8192L5.26392 20.2601C4.69217 20.533 4.00796 20.3212 3.6874 19.7744C3.56864 19.5511 3.52555 19.2951 3.56549 19.0444L4.49878 13.8559C4.56184 13.4788 4.43572 13.0953 4.16141 12.8298L0.345197 9.1352C-0.107788 8.69168 -0.116196 7.96371 0.32733 7.50965C0.333636 7.50333 0.338891 7.49807 0.345197 7.4928C0.525971 7.3137 0.759294 7.19571 1.01049 7.15884L6.27919 6.38347C6.66071 6.33501 6.99177 6.09692 7.15994 5.75137L9.45008 0.971662C9.66764 0.586083 10.0849 0.356421 10.5263 0.380651C10.5179 0.69354 10.5179 17.4473 10.5179 17.6601Z" fill="#FF5017"/>
</svg>
