<svg width="51" height="50" viewBox="0 0 51 50" fill="none" xmlns="http://www.w3.org/2000/svg">
<circle cx="25.3066" cy="25" r="25" fill="#F8FAFA"/>
<path d="M20.7687 14.7896C17.6363 14.7896 15.0962 17.3297 15.0962 20.462V29.538C15.0962 32.6703 17.6363 35.2104 20.7687 35.2104H29.8446C32.977 35.2104 35.5171 32.6703 35.5171 29.538V20.462C35.5171 17.3297 32.977 14.7896 29.8446 14.7896H20.7687ZM32.1136 17.0585C32.7398 17.0585 33.2481 17.5668 33.2481 18.193C33.2481 18.8193 32.7398 19.3275 32.1136 19.3275C31.4874 19.3275 30.9791 18.8193 30.9791 18.193C30.9791 17.5668 31.4874 17.0585 32.1136 17.0585ZM25.3066 19.3275C28.439 19.3275 30.9791 21.8677 30.9791 25C30.9791 28.1323 28.439 30.6725 25.3066 30.6725C22.1743 30.6725 19.6342 28.1323 19.6342 25C19.6342 21.8677 22.1743 19.3275 25.3066 19.3275ZM25.3066 21.5965C24.404 21.5965 23.5383 21.9551 22.9 22.5934C22.2617 23.2317 21.9032 24.0973 21.9032 25C21.9032 25.9027 22.2617 26.7683 22.9 27.4066C23.5383 28.0449 24.404 28.4035 25.3066 28.4035C26.2093 28.4035 27.075 28.0449 27.7133 27.4066C28.3515 26.7683 28.7101 25.9027 28.7101 25C28.7101 24.0973 28.3515 23.2317 27.7133 22.5934C27.075 21.9551 26.2093 21.5965 25.3066 21.5965Z" fill="#FF5017"/>
</svg>
