<svg width="51" height="50" viewBox="0 0 51 50" fill="none" xmlns="http://www.w3.org/2000/svg">
<circle cx="25.3064" cy="25" r="25" fill="#F8FAFA"/>
<path d="M35.9928 27.3063V35.1996H31.4109V27.8353C31.4109 25.9862 30.7494 24.7234 29.0905 24.7234C27.8245 24.7234 27.0724 25.5736 26.7402 26.3968C26.6196 26.691 26.5885 27.0995 26.5885 27.5121V35.1993H22.0063C22.0063 35.1993 22.0678 22.7265 22.0063 21.4354H26.5889V23.3859C26.5796 23.4013 26.5667 23.4163 26.5585 23.431H26.5889V23.3859C27.1978 22.4501 28.2837 21.1122 30.7183 21.1122C33.7328 21.1122 35.9928 23.0794 35.9928 27.3063ZM17.2129 14.8008C15.6456 14.8008 14.6201 15.8284 14.6201 17.1785C14.6201 18.5 15.6158 19.5573 17.1528 19.5573H17.1825C18.7807 19.5573 19.7743 18.5 19.7743 17.1785C19.7439 15.8284 18.7807 14.8008 17.2129 14.8008ZM14.8925 35.1996H19.4729V21.4354H14.8925V35.1996Z" fill="#FF5017"/>
</svg>
