<svg width="210" height="210" viewBox="0 0 210 210" fill="none" xmlns="http://www.w3.org/2000/svg">
<g clip-path="url(#clip0_1_1431)">
<path opacity="0.45" d="M29.6266 104.91C29.6266 147.123 63.8535 181.35 106.067 181.35C148.28 181.35 182.507 147.123 182.507 104.91C182.507 62.6965 148.28 28.4696 106.067 28.4696C63.8535 28.4696 29.6266 62.6965 29.6266 104.91ZM21.9925 104.91C21.9925 58.4816 59.6221 20.8354 106.067 20.8354C152.495 20.8354 190.141 58.465 190.141 104.91C190.141 151.338 152.511 188.984 106.067 188.984C59.6386 188.984 21.9925 151.354 21.9925 104.91Z" stroke="#010F58"/>
<path opacity="0.432" d="M29.4766 104.91C29.4766 147.206 63.7702 181.5 106.067 181.5C148.364 181.5 182.64 147.206 182.657 104.91C182.657 62.6132 148.363 28.3196 106.067 28.3196C63.7702 28.3196 29.4766 62.6132 29.4766 104.91ZM22.0925 104.91C22.0925 58.5318 59.6887 20.9355 106.067 20.9355C152.428 20.9355 190.024 58.5317 190.041 104.91C190.041 151.288 152.445 188.884 106.067 188.884C59.6887 188.884 22.0925 151.288 22.0925 104.91Z" stroke="#010F58"/>
<path opacity="0.414" d="M29.3432 104.91C29.3432 147.29 63.6868 181.633 106.067 181.633C148.43 181.633 182.79 147.29 182.79 104.91C182.79 62.5299 148.447 28.1863 106.067 28.1863C63.6868 28.1863 29.3432 62.5299 29.3432 104.91ZM22.2092 104.91C22.2092 58.5984 59.7554 21.0522 106.067 21.0522C152.361 21.0522 189.908 58.5984 189.924 104.91C189.924 151.221 152.378 188.767 106.067 188.767C59.7554 188.767 22.2092 151.221 22.2092 104.91Z" stroke="#010F58"/>
<path opacity="0.396" d="M29.2099 104.91C29.2099 147.356 63.6202 181.766 106.067 181.766C148.513 181.766 182.924 147.356 182.924 104.91C182.924 62.463 148.513 28.0527 106.067 28.0527C63.6202 28.0527 29.2099 62.463 29.2099 104.91ZM22.3259 104.91C22.3259 58.6649 59.8221 21.1687 106.067 21.1687C152.311 21.1687 189.791 58.6648 189.808 104.91C189.808 151.154 152.311 188.651 106.067 188.651C59.8221 188.651 22.3259 151.154 22.3259 104.91Z" stroke="#010F58"/>
<path opacity="0.378" d="M29.0599 104.91C29.0599 147.44 63.5368 181.917 106.067 181.917C148.58 181.917 183.057 147.439 183.074 104.91C183.074 62.3797 148.597 27.9028 106.067 27.9028C63.5368 27.9028 29.0599 62.3797 29.0599 104.91ZM22.4425 104.91C22.4425 58.7316 59.8887 21.2854 106.067 21.2854C152.245 21.2854 189.674 58.7315 189.691 104.91C189.691 151.088 152.245 188.534 106.067 188.534C59.8887 188.534 22.4425 151.088 22.4425 104.91Z" stroke="#010F58"/>
<path opacity="0.36" d="M28.9265 104.91C28.9265 147.506 63.4534 182.05 106.067 182.05C148.663 182.05 183.207 147.523 183.207 104.91C183.207 62.3131 148.68 27.7694 106.067 27.7694C63.4702 27.7694 28.9265 62.2963 28.9265 104.91ZM22.5592 104.91C22.5592 58.7816 59.9387 21.4021 106.067 21.4021C152.178 21.4021 189.574 58.7983 189.574 104.91C189.574 151.038 152.195 188.417 106.067 188.417C59.9387 188.417 22.5592 151.038 22.5592 104.91Z" stroke="#010F58"/>
<path opacity="0.342" d="M28.7765 104.91C28.7765 147.606 63.3869 182.2 106.067 182.2C148.747 182.2 183.357 147.606 183.357 104.91C183.357 62.213 148.747 27.6194 106.067 27.6194C63.3702 27.6194 28.7765 62.2131 28.7765 104.91ZM22.6759 104.91C22.6759 58.8483 60.0054 21.5188 106.067 21.5188C152.112 21.5188 189.458 58.8484 189.458 104.91C189.458 150.971 152.128 188.301 106.067 188.301C60.0054 188.301 22.6759 150.971 22.6759 104.91Z" stroke="#010F58"/>
<path opacity="0.324" d="M28.6432 104.91C28.6432 147.673 63.3035 182.333 106.067 182.333C148.813 182.333 183.49 147.673 183.49 104.91C183.49 62.1464 148.83 27.4861 106.067 27.4861C63.3035 27.4861 28.6432 62.1464 28.6432 104.91ZM22.7926 104.91C22.7926 58.915 60.0721 21.6355 106.067 21.6355C152.045 21.6355 189.341 58.9151 189.341 104.91C189.341 150.904 152.061 188.184 106.067 188.184C60.0721 188.184 22.7926 150.904 22.7926 104.91Z" stroke="#010F58"/>
<path opacity="0.306" d="M28.5098 104.91C28.5098 147.74 63.2368 182.467 106.067 182.467C148.897 182.467 183.624 147.74 183.624 104.91C183.624 62.0797 148.897 27.3528 106.067 27.3528C63.2368 27.3528 28.5098 62.0797 28.5098 104.91ZM22.9092 104.91C22.9092 58.9817 60.1387 21.7522 106.067 21.7522C151.995 21.7522 189.224 58.9817 189.224 104.91C189.224 150.838 151.995 188.067 106.067 188.067C60.1387 188.067 22.9092 150.838 22.9092 104.91Z" stroke="#010F58"/>
<path opacity="0.288" d="M28.3598 104.91C28.3598 147.823 63.1534 182.617 106.067 182.617C148.98 182.617 183.757 147.823 183.774 104.91C183.774 61.9964 148.98 27.2028 106.067 27.2028C63.1534 27.2028 28.3598 61.9964 28.3598 104.91ZM23.0259 104.91C23.0259 59.0484 60.2054 21.8689 106.067 21.8689C151.928 21.8689 189.108 59.0484 189.108 104.91C189.108 150.771 151.928 187.951 106.067 187.951C60.2054 187.951 23.0259 150.771 23.0259 104.91Z" stroke="#010F58"/>
<path opacity="0.27" d="M28.2265 104.91C28.2265 147.906 63.0701 182.75 106.067 182.75C149.047 182.75 183.907 147.907 183.907 104.91C183.907 61.9132 149.063 27.0695 106.067 27.0695C63.0701 27.0695 28.2265 61.9132 28.2265 104.91ZM23.1259 104.91C23.1259 59.0985 60.2554 21.969 106.067 21.969C151.861 21.969 188.991 59.0984 189.008 104.91C189.008 150.721 151.878 187.851 106.067 187.851C60.2554 187.851 23.1259 150.721 23.1259 104.91Z" stroke="#010F58"/>
<path opacity="0.252" d="M28.0931 104.91C28.0931 147.973 63.0034 182.883 106.067 182.883C149.13 182.883 184.04 147.973 184.04 104.91C184.04 61.8463 149.13 26.936 106.067 26.936C63.0034 26.936 28.0931 61.8463 28.0931 104.91ZM23.2426 104.91C23.2426 59.1649 60.3221 22.0854 106.067 22.0854C151.795 22.0854 188.891 59.165 188.891 104.91C188.891 150.654 151.811 187.734 106.067 187.734C60.3221 187.734 23.2426 150.654 23.2426 104.91Z" stroke="#010F58"/>
<path opacity="0.234" d="M27.9431 104.91C27.9431 148.056 62.9201 183.033 106.067 183.033C149.197 183.033 184.174 148.056 184.19 104.91C184.19 61.763 149.213 26.786 106.067 26.786C62.9201 26.786 27.9431 61.763 27.9431 104.91ZM23.3593 104.91C23.3593 59.2316 60.3888 22.2021 106.067 22.2021C151.728 22.2021 188.774 59.2317 188.774 104.91C188.774 150.588 151.745 187.617 106.067 187.617C60.3888 187.617 23.3593 150.588 23.3593 104.91Z" stroke="#010F58"/>
<path opacity="0.216" d="M27.8098 104.91C27.8098 148.123 62.8534 183.167 106.067 183.167C149.28 183.167 184.324 148.123 184.324 104.91C184.324 61.6963 149.28 26.6527 106.067 26.6527C62.8534 26.6527 27.8098 61.6963 27.8098 104.91ZM23.476 104.91C23.476 59.2983 60.4554 22.3188 106.067 22.3188C151.678 22.3188 188.641 59.2982 188.658 104.91C188.658 150.521 151.678 187.5 106.067 187.5C60.4554 187.5 23.476 150.521 23.476 104.91Z" stroke="#010F58"/>
<path opacity="0.198" d="M27.6598 104.91C27.6598 148.223 62.7702 183.317 106.067 183.317C149.363 183.317 184.474 148.223 184.474 104.91C184.474 61.5963 149.363 26.5027 106.067 26.5027C62.7534 26.5027 27.6598 61.5963 27.6598 104.91ZM23.5927 104.91C23.5927 59.365 60.5221 22.4355 106.067 22.4355C151.611 22.4355 188.541 59.365 188.541 104.91C188.541 150.454 151.611 187.384 106.067 187.384C60.5221 187.384 23.5927 150.454 23.5927 104.91Z" stroke="#010F58"/>
<path opacity="0.18" d="M27.5264 104.91C27.5264 148.29 62.6867 183.45 106.067 183.45C149.43 183.45 184.59 148.29 184.607 104.91C184.607 61.5297 149.447 26.3693 106.067 26.3693C62.6867 26.3693 27.5264 61.5297 27.5264 104.91ZM23.7093 104.91C23.7093 59.4317 60.5722 22.5522 106.067 22.5522C151.545 22.5522 188.424 59.4151 188.424 104.91C188.424 150.388 151.545 187.267 106.067 187.267C60.5887 187.267 23.7093 150.404 23.7093 104.91Z" stroke="#010F58"/>
<path opacity="0.162" d="M27.3931 104.91C27.3931 148.356 62.6201 183.583 106.067 183.583C149.513 183.583 184.74 148.356 184.74 104.91C184.74 61.463 149.513 26.236 106.067 26.236C62.6201 26.236 27.3931 61.463 27.3931 104.91ZM23.826 104.91C23.826 59.4984 60.6389 22.6689 106.067 22.6689C151.478 22.6689 188.308 59.4818 188.308 104.91C188.308 150.321 151.495 187.15 106.067 187.15C60.6554 187.15 23.826 150.338 23.826 104.91Z" stroke="#010F58"/>
<path opacity="0.144" d="M27.243 104.91C27.243 148.44 62.5367 183.733 106.067 183.733C149.58 183.733 184.89 148.44 184.89 104.91C184.89 61.3797 149.597 26.086 106.067 26.086C62.5367 26.086 27.243 61.3797 27.243 104.91ZM23.9427 104.91C23.9427 59.565 60.7055 22.7856 106.067 22.7856C151.411 22.7856 188.191 59.5485 188.191 104.91C188.191 150.254 151.428 187.034 106.067 187.034C60.7221 187.034 23.9427 150.271 23.9427 104.91Z" stroke="#010F58"/>
<path opacity="0.126" d="M27.1097 104.91C27.1097 148.523 62.4534 183.867 106.067 183.867C149.663 183.867 185.024 148.523 185.024 104.91C185.024 61.2965 149.68 25.9528 106.067 25.9528C62.4534 25.9528 27.1097 61.2965 27.1097 104.91ZM24.0427 104.91C24.0427 59.5986 60.7721 22.8857 106.067 22.8857C151.361 22.8857 188.074 59.6151 188.091 104.91C188.091 150.221 151.361 186.934 106.067 186.934C60.7555 186.934 24.0427 150.205 24.0427 104.91Z" stroke="#010F58"/>
<path opacity="0.108" d="M26.9764 104.91C26.9764 148.59 62.3867 184 106.067 184C149.747 184 185.157 148.59 185.157 104.91C185.157 61.2296 149.747 25.8192 106.067 25.8192C62.3867 25.8192 26.9764 61.2296 26.9764 104.91ZM24.1594 104.91C24.1594 59.6651 60.8388 23.0022 106.067 23.0022C151.295 23.0022 187.958 59.6815 187.974 104.91C187.974 150.154 151.295 186.817 106.067 186.817C60.8222 186.817 24.1594 150.138 24.1594 104.91Z" stroke="#010F58"/>
<path opacity="0.09" d="M26.8263 104.91C26.8263 148.673 62.3034 184.15 106.067 184.15C149.813 184.15 185.307 148.673 185.307 104.91C185.307 61.1462 149.83 25.6692 106.067 25.6692C62.3034 25.6692 26.8263 61.1462 26.8263 104.91ZM24.276 104.91C24.276 59.7317 60.8888 23.1189 106.067 23.1189C151.228 23.1189 187.841 59.7316 187.857 104.91C187.857 150.088 151.245 186.7 106.067 186.7C60.8888 186.7 24.276 150.088 24.276 104.91Z" stroke="#010F58"/>
<path opacity="0.072" d="M26.693 104.91C26.693 148.74 62.2367 184.283 106.067 184.283C149.897 184.283 185.441 148.74 185.441 104.91C185.441 61.0796 149.897 25.5359 106.067 25.5359C62.22 25.5359 26.693 61.0797 26.693 104.91ZM24.3927 104.91C24.3927 59.7984 60.9555 23.2356 106.067 23.2356C151.161 23.2356 187.724 59.7983 187.741 104.91C187.741 150.021 151.178 186.584 106.067 186.584C60.9555 186.584 24.3927 150.021 24.3927 104.91Z" stroke="#010F58"/>
<path opacity="0.054" d="M26.5597 104.91C26.5597 148.823 62.1534 184.417 106.067 184.417C149.98 184.417 185.574 148.823 185.574 104.91C185.574 60.9963 149.98 25.4026 106.067 25.4026C62.1534 25.4026 26.5597 60.9963 26.5597 104.91ZM24.5094 104.91C24.5094 59.8651 61.0222 23.3523 106.067 23.3523C151.095 23.3523 187.624 59.8651 187.624 104.91C187.624 149.954 151.111 186.467 106.067 186.467C61.0222 186.467 24.5094 149.954 24.5094 104.91Z" stroke="#010F58"/>
<path opacity="0.036" d="M26.4097 104.91C26.4097 148.906 62.07 184.567 106.067 184.567C150.047 184.567 185.707 148.906 185.724 104.91C185.724 60.913 150.063 25.2526 106.067 25.2526C62.07 25.2526 26.4097 60.913 26.4097 104.91ZM24.6261 104.91C24.6261 59.9318 61.0888 23.469 106.067 23.469C151.045 23.469 187.507 59.9318 187.507 104.91C187.507 149.888 151.045 186.35 106.067 186.35C61.0888 186.35 24.6261 149.888 24.6261 104.91Z" stroke="#010F58"/>
<path opacity="0.018" d="M26.2763 104.91C26.2763 148.973 62.0033 184.7 106.067 184.7C150.13 184.7 185.857 148.973 185.857 104.91C185.857 60.8463 150.13 25.1193 106.067 25.1193C62.0033 25.1193 26.2763 60.8463 26.2763 104.91ZM24.7427 104.91C24.7427 59.9985 61.1555 23.5857 106.067 23.5857C150.978 23.5857 187.391 59.9985 187.391 104.91C187.391 149.821 150.978 186.234 106.067 186.234C61.1555 186.234 24.7427 149.821 24.7427 104.91Z" stroke="#010F58"/>
<path opacity="0.52" d="M195.597 53.4727L194.847 52.1736L189.347 55.3489L190.097 56.648L195.597 53.4727Z" fill="#FF5017"/>
<path opacity="0.42" d="M189.733 44.2846L188.851 43.071L183.714 46.8041L184.596 48.0177L189.733 44.2846Z" fill="#FF5017"/>
<path opacity="0.32" d="M182.929 35.758L181.925 34.6431L177.206 38.8925L178.21 40.0074L182.929 35.758Z" fill="#FF5017"/>
<path opacity="0.22" d="M175.265 28.0049L174.15 27.0012L169.901 31.7203L171.015 32.7241L175.265 28.0049Z" fill="#FF5017"/>
<path opacity="0.11" d="M166.834 21.0682L165.621 20.1865L161.888 25.3239L163.102 26.2056L166.834 21.0682Z" fill="#FF5017"/>
<path opacity="0.02" d="M157.739 15.0676L156.44 14.3176L153.265 19.8179L154.564 20.5678L157.739 15.0676Z" fill="#FF5017"/>
<path opacity="0.02" d="M53.5763 14.3161L52.2772 15.0662L55.4525 20.5659L56.7516 19.8159L53.5763 14.3161Z" fill="#FF5017"/>
<path opacity="0.11" d="M44.3768 20.1845L43.1631 21.0662L46.8957 26.2038L48.1093 25.3221L44.3768 20.1845Z" fill="#FF5017"/>
<path opacity="0.22" d="M35.8615 26.9883L34.7468 27.9922L38.9965 32.711L40.1112 31.7072L35.8615 26.9883Z" fill="#FF5017"/>
<path opacity="0.32" d="M28.0887 34.6454L27.0849 35.7603L31.8043 40.0099L32.8082 38.8951L28.0887 34.6454Z" fill="#FF5017"/>
<path opacity="0.42" d="M21.1603 43.073L20.2785 44.2866L25.4162 48.0198L26.298 46.8062L21.1603 43.073Z" fill="#FF5017"/>
<path opacity="0.52" d="M15.1589 52.1828L14.4089 53.4819L19.9086 56.6571L20.6586 55.3579L15.1589 52.1828Z" fill="#FF5017"/>
<path opacity="0.52" d="M10.131 61.8493L9.5209 63.2197L15.3225 65.8026L15.9326 64.4321L10.131 61.8493Z" fill="#FF5017"/>
<path opacity="0.52" d="M6.14212 72.0021L5.67859 73.4287L11.718 75.391L12.1816 73.9644L6.14212 72.0021Z" fill="#FF5017"/>
<path opacity="0.52" d="M3.24988 82.5198L2.93799 83.9871L9.14945 85.3074L9.46134 83.8401L3.24988 82.5198Z" fill="#FF5017"/>
<path opacity="0.52" d="M1.47392 93.2864L1.31708 94.7783L7.63281 95.4423L7.78965 93.9504L1.47392 93.2864Z" fill="#FF5017"/>
<path opacity="0.52" d="M0.841946 104.17L0.841797 105.67L7.19254 105.671L7.19269 104.17L0.841946 104.17Z" fill="#FF5017"/>
<path opacity="0.52" d="M1.30027 115.064L1.45709 116.556L7.77252 115.892L7.6157 114.4L1.30027 115.064Z" fill="#FF5017"/>
<path opacity="0.52" d="M2.93462 125.829L3.24649 127.296L9.45792 125.976L9.14604 124.508L2.93462 125.829Z" fill="#FF5017"/>
<path opacity="0.52" d="M5.70404 136.386L6.16766 137.813L12.2077 135.85L11.744 134.424L5.70404 136.386Z" fill="#FF5017"/>
<path opacity="0.52" d="M9.52887 146.603L10.1389 147.973L15.9406 145.391L15.3305 144.02L9.52887 146.603Z" fill="#FF5017"/>
<path opacity="0.52" d="M14.4032 156.353L15.1533 157.652L20.653 154.477L19.9029 153.177L14.4032 156.353Z" fill="#FF5017"/>
<path opacity="0.52" d="M20.2613 165.53L21.1432 166.743L26.2805 163.01L25.3987 161.797L20.2613 165.53Z" fill="#FF5017"/>
<path opacity="0.52" d="M27.0835 174.048L28.0873 175.163L32.8071 170.913L31.8032 169.798L27.0835 174.048Z" fill="#FF5017"/>
<path opacity="0.52" d="M34.7203 181.825L35.8352 182.828L40.084 178.109L38.9691 177.105L34.7203 181.825Z" fill="#FF5017"/>
<path opacity="0.52" d="M43.1554 188.768L44.369 189.65L48.1016 184.512L46.888 183.63L43.1554 188.768Z" fill="#FF5017"/>
<path opacity="0.52" d="M52.2558 194.742L53.5551 195.492L56.7299 189.992L55.4306 189.242L52.2558 194.742Z" fill="#FF5017"/>
<path opacity="0.52" d="M61.9334 199.779L63.3038 200.39L65.8867 194.588L64.5163 193.978L61.9334 199.779Z" fill="#FF5017"/>
<path opacity="0.52" d="M72.1031 203.764L73.5297 204.227L75.492 198.188L74.0654 197.724L72.1031 203.764Z" fill="#FF5017"/>
<path opacity="0.52" d="M82.6155 206.676L84.0828 206.988L85.4031 200.776L83.9358 200.464L82.6155 206.676Z" fill="#FF5017"/>
<path opacity="0.52" d="M93.3516 208.451L94.8435 208.608L95.5074 202.292L94.0155 202.135L93.3516 208.451Z" fill="#FF5017"/>
<path opacity="0.52" d="M104.253 209.084L105.753 209.084L105.753 202.733L104.253 202.733L104.253 209.084Z" fill="#FF5017"/>
<path opacity="0.52" d="M115.136 208.598L116.628 208.441L115.963 202.125L114.471 202.282L115.136 208.598Z" fill="#FF5017"/>
<path opacity="0.52" d="M125.923 206.967L127.39 206.655L126.07 200.443L124.602 200.755L125.923 206.967Z" fill="#FF5017"/>
<path opacity="0.52" d="M136.492 204.205L137.918 203.741L135.957 197.701L134.53 198.165L136.492 204.205Z" fill="#FF5017"/>
<path opacity="0.52" d="M146.687 200.4L148.058 199.79L145.475 193.988L144.104 194.599L146.687 200.4Z" fill="#FF5017"/>
<path opacity="0.52" d="M156.434 195.504L157.733 194.754L154.558 189.254L153.258 190.004L156.434 195.504Z" fill="#FF5017"/>
<path opacity="0.52" d="M165.628 189.632L166.842 188.75L163.109 183.612L161.896 184.494L165.628 189.632Z" fill="#FF5017"/>
<path opacity="0.52" d="M174.163 182.832L175.277 181.828L171.028 177.109L169.913 178.113L174.163 182.832Z" fill="#FF5017"/>
<path opacity="0.52" d="M181.915 175.181L182.918 174.066L178.199 169.816L177.195 170.931L181.915 175.181Z" fill="#FF5017"/>
<path opacity="0.52" d="M188.834 166.758L189.715 165.545L184.578 161.811L183.696 163.025L188.834 166.758Z" fill="#FF5017"/>
<path opacity="0.52" d="M194.845 157.646L195.595 156.347L190.096 153.172L189.346 154.471L194.845 157.646Z" fill="#FF5017"/>
<path opacity="0.52" d="M199.857 147.973L200.468 146.603L194.666 144.02L194.056 145.39L199.857 147.973Z" fill="#FF5017"/>
<path opacity="0.52" d="M203.85 137.803L204.314 136.376L198.274 134.414L197.811 135.841L203.85 137.803Z" fill="#FF5017"/>
<path opacity="0.52" d="M206.752 127.314L207.064 125.847L200.852 124.527L200.54 125.994L206.752 127.314Z" fill="#FF5017"/>
<path opacity="0.52" d="M208.528 116.548L208.685 115.057L202.369 114.393L202.213 115.884L208.528 116.548Z" fill="#FF5017"/>
<path opacity="0.52" d="M209.169 105.668L209.169 104.168L202.819 104.167L202.819 105.667L209.169 105.668Z" fill="#FF5017"/>
<path opacity="0.52" d="M208.685 94.7648L208.529 93.2729L202.213 93.9368L202.37 95.4287L208.685 94.7648Z" fill="#FF5017"/>
<path opacity="0.52" d="M207.045 83.9922L206.733 82.5249L200.521 83.8446L200.833 85.312L207.045 83.9922Z" fill="#FF5017"/>
<path opacity="0.52" d="M204.32 73.4385L203.856 72.0117L197.816 73.9744L198.28 75.4012L204.32 73.4385Z" fill="#FF5017"/>
<path opacity="0.52" d="M200.478 63.2328L199.868 61.8623L194.066 64.4449L194.676 65.8153L200.478 63.2328Z" fill="#FF5017"/>
<path d="M48.9952 115.042C50.7618 116.676 52.8952 117.342 55.2285 117.309C57.7952 117.376 60.2952 116.542 62.0952 114.409C63.7618 112.442 64.1285 110.476 64.1285 107.809V101.909C64.1285 98.9424 63.7285 96.7091 61.5285 94.6424C59.9952 93.1424 57.8285 92.3424 55.7618 92.4091C53.6618 92.3424 51.4952 93.1424 49.9618 94.6091C48.3952 96.0757 47.4285 98.2424 47.3952 100.409C47.3285 102.776 48.0952 104.709 49.8285 106.309C51.2952 107.576 53.2285 108.242 55.0618 108.242C56.6618 108.242 58.2285 107.709 59.4952 106.742V107.809C59.4952 108.809 59.5285 109.609 59.1618 110.442C58.5618 112.009 56.9285 113.076 55.2285 113.076C54.1285 113.076 53.0285 112.609 52.2285 111.809L48.9952 115.042ZM53.0952 97.7757C53.7952 97.0757 54.7618 96.6424 55.7618 96.6757C56.7285 96.6424 57.6952 97.0757 58.3952 97.7757C59.0952 98.4424 59.4952 99.4424 59.4952 100.409C59.4952 101.409 59.0952 102.376 58.3952 103.076C57.6952 103.776 56.7285 104.176 55.7285 104.176C54.7618 104.176 53.7952 103.776 53.0952 103.076C52.3952 102.376 51.9952 101.409 51.9952 100.409C51.9952 99.4091 52.3952 98.4424 53.0952 97.7757ZM68.0827 99.2091C68.116 100.076 68.2493 101.076 68.6827 102.076C68.9827 102.742 69.4493 103.342 69.9493 103.909C69.116 104.642 68.4493 105.576 68.0493 106.542C67.616 107.609 67.4493 108.642 67.4493 109.609C67.4493 111.842 68.416 114.042 70.116 115.442C71.5827 116.676 73.7493 117.309 75.816 117.309C77.816 117.309 79.9493 116.776 81.5493 115.442C83.316 114.009 84.116 111.942 84.216 109.609C84.1827 108.642 84.0493 107.609 83.616 106.542C83.216 105.576 82.5493 104.642 81.716 103.909C82.216 103.342 82.6493 102.742 82.9493 102.076C83.416 101.076 83.5493 100.076 83.5493 99.2091C83.5493 97.0757 82.616 95.0424 80.916 93.8091C79.5493 92.7424 77.716 92.3091 75.816 92.3091C74.0493 92.3091 72.1827 92.7091 70.7493 93.8091C68.9827 95.0757 68.1827 96.9424 68.0827 99.2091ZM72.8827 99.2091C72.8827 98.4091 73.116 97.7091 73.6827 97.2424C74.216 96.7757 75.016 96.5757 75.816 96.5424C76.6493 96.5757 77.4493 96.7757 77.9827 97.2424C78.516 97.7091 78.7827 98.4091 78.7493 99.2091C78.7827 100.009 78.516 100.709 77.9827 101.176C77.4493 101.642 76.6493 101.842 75.816 101.842C75.016 101.842 74.216 101.642 73.6827 101.176C73.116 100.709 72.8827 100.009 72.8827 99.2091ZM78.4493 112.142C77.816 112.742 76.816 113.042 75.816 113.042C74.816 113.042 73.8493 112.742 73.1827 112.142C72.516 111.509 72.2493 110.576 72.2493 109.609C72.2493 108.609 72.516 107.676 73.1827 107.076C73.8493 106.442 74.816 106.142 75.816 106.142C76.816 106.142 77.816 106.442 78.4493 107.076C79.116 107.676 79.416 108.609 79.416 109.609C79.416 110.576 79.116 111.509 78.4493 112.142ZM90.3764 116.809H94.9764L103.01 97.0757V92.8091H87.8764V97.0757H98.4431L90.3764 116.809ZM115.235 117.276C112.701 117.276 110.068 116.376 108.368 114.376C106.668 112.242 106.335 110.476 106.335 107.742V101.842C106.335 99.1757 106.601 97.4091 108.368 95.2091C109.935 93.3424 112.535 92.2424 115.235 92.3091C117.768 92.2424 120.368 93.1757 122.101 95.2091C123.835 97.2424 124.135 99.1091 124.135 101.842V107.742C124.135 110.342 123.835 112.309 122.101 114.376C120.401 116.342 117.935 117.276 115.235 117.276ZM115.235 96.5757C113.735 96.5424 112.268 97.4424 111.535 98.7424C111.001 99.6424 110.968 100.576 110.968 101.842V107.742C110.968 108.876 110.935 110.009 111.635 111.042C112.435 112.242 113.801 113.042 115.235 113.009C116.701 113.042 118.101 112.242 118.868 111.009C119.535 110.042 119.501 109.176 119.501 107.742V101.842C119.501 100.642 119.568 99.9091 119.001 98.7757C118.268 97.4424 116.768 96.5424 115.235 96.5757ZM135.703 117.276C133.17 117.276 130.537 116.376 128.837 114.376C127.137 112.242 126.803 110.476 126.803 107.742V101.842C126.803 99.1757 127.07 97.4091 128.837 95.2091C130.403 93.3424 133.003 92.2424 135.703 92.3091C138.237 92.2424 140.837 93.1757 142.57 95.2091C144.303 97.2424 144.603 99.1091 144.603 101.842V107.742C144.603 110.342 144.303 112.309 142.57 114.376C140.87 116.342 138.403 117.276 135.703 117.276ZM135.703 96.5757C134.203 96.5424 132.737 97.4424 132.003 98.7424C131.47 99.6424 131.437 100.576 131.437 101.842V107.742C131.437 108.876 131.403 110.009 132.103 111.042C132.903 112.242 134.27 113.042 135.703 113.009C137.17 113.042 138.57 112.242 139.337 111.009C140.003 110.042 139.97 109.176 139.97 107.742V101.842C139.97 100.642 140.037 99.9091 139.47 98.7757C138.737 97.4424 137.237 96.5424 135.703 96.5757ZM170.595 105.542H164.362V99.3091H160.862V105.542H154.595V109.042H160.862V115.309H164.362V109.042H170.595V105.542Z" fill="#FF5017"/>
</g>
<defs>
<clipPath id="clip0_1_1431">
<rect width="208.352" height="208.352" fill="white" transform="translate(0.823975 0.733643)"/>
</clipPath>
</defs>
</svg>
