<svg width="157" height="50" viewBox="0 0 157 50" fill="none" xmlns="http://www.w3.org/2000/svg">
<path d="M41.4837 49.8711V33.208L70.4031 11.8952H86.3621L70.4031 0.128418L32.0627 28.3766V49.8711H41.4837Z" fill="#FF5017"/>
<path d="M10.2606 49.8711V33.208L39.1799 11.8952L47.1466 17.7786L55.139 11.8952L39.1799 0.128418L0.8396 28.3766V49.8711H10.2606Z" fill="#FF5017"/>
<path d="M67.1624 35.1819L72.1374 43.2319H76.2624L70.1624 33.8569L75.7624 25.2319H71.6624L67.1624 32.5569H64.6624V25.2319H61.2124V43.2319H64.6624V35.1819H67.1624ZM80.7515 33.7069C80.8265 33.5819 80.9265 33.4569 81.0265 33.3569C81.5515 32.7319 82.2765 32.5319 83.1515 32.5319C83.8515 32.5069 84.5265 32.6319 85.0765 32.9569C85.5765 33.2319 85.9515 33.6819 86.0765 34.2069L83.9015 34.5069C81.9765 34.8069 80.9265 34.8319 79.4265 35.6319C78.1515 36.3819 77.2515 37.8069 77.2515 39.2569C77.2515 40.4319 77.6015 41.1069 78.3015 42.0819C79.0265 42.9319 80.4015 43.5819 81.7265 43.5819C82.7515 43.5819 83.9265 43.3319 84.8765 42.7569C85.4765 42.4069 86.3015 41.6569 86.5515 40.9319V43.2319H89.5265V34.7569C89.5265 33.9319 89.3265 32.9319 88.8015 32.0569C87.7015 30.2069 85.7015 29.3819 83.2265 29.3819C81.0015 29.3819 79.1515 30.1069 77.9265 31.8319C77.8265 31.9569 77.7265 32.1319 77.6515 32.2319L80.7515 33.7069ZM86.1515 36.9319C86.1515 37.0569 86.1265 37.5569 85.9765 38.1069C85.5515 39.7319 83.8265 40.4319 82.4015 40.4819C81.3015 40.5319 80.5765 39.8319 80.6265 39.0319C80.6765 37.9569 82.2015 37.6819 83.6515 37.4069L86.1515 36.9319ZM101.092 29.7319L97.8921 39.0819L94.6671 29.7319H91.2671L96.1921 43.2319H99.5671L104.492 29.7319H101.092ZM106.751 24.8569V27.8569H110.151V24.8569H106.751ZM106.751 29.7319V43.2319H110.151V29.7319H106.751ZM124.733 30.8569C123.658 29.8819 122.058 29.3069 120.558 29.3569C119.333 29.4069 117.983 29.8069 116.908 30.6569V29.7319H113.908V43.2319H117.333V37.3569C117.333 36.4319 117.358 35.5069 117.483 34.9069C117.633 34.1569 117.983 33.5569 118.483 33.1819C118.933 32.8569 119.458 32.6819 120.083 32.6569C121.008 32.6569 121.733 32.9069 122.208 33.4069C122.908 34.1069 123.108 35.2569 123.108 36.4819V43.2319H126.558V36.4819C126.558 34.1319 126.333 32.3319 124.733 30.8569ZM132.314 33.7069C132.389 33.5819 132.489 33.4569 132.589 33.3569C133.114 32.7319 133.839 32.5319 134.714 32.5319C135.414 32.5069 136.089 32.6319 136.639 32.9569C137.139 33.2319 137.514 33.6819 137.639 34.2069L135.464 34.5069C133.539 34.8069 132.489 34.8319 130.989 35.6319C129.714 36.3819 128.814 37.8069 128.814 39.2569C128.814 40.4319 129.164 41.1069 129.864 42.0819C130.589 42.9319 131.964 43.5819 133.289 43.5819C134.314 43.5819 135.489 43.3319 136.439 42.7569C137.039 42.4069 137.864 41.6569 138.114 40.9319V43.2319H141.089V34.7569C141.089 33.9319 140.889 32.9319 140.364 32.0569C139.264 30.2069 137.264 29.3819 134.789 29.3819C132.564 29.3819 130.714 30.1069 129.489 31.8319C129.389 31.9569 129.289 32.1319 129.214 32.2319L132.314 33.7069ZM137.714 36.9319C137.714 37.0569 137.689 37.5569 137.539 38.1069C137.114 39.7319 135.389 40.4319 133.964 40.4819C132.864 40.5319 132.139 39.8319 132.189 39.0319C132.239 37.9569 133.764 37.6819 135.214 37.4069L137.714 36.9319ZM156.03 29.7319H152.18L149.48 33.7819L146.78 29.7319H142.93L147.68 36.3819L142.83 43.2319H146.705L149.48 39.0319L152.255 43.2319H156.155L151.28 36.3819L156.03 29.7319Z" fill="#010F58"/>
</svg>
