<svg width="22" height="23" viewBox="0 0 22 23" fill="none" xmlns="http://www.w3.org/2000/svg">
<ellipse cx="10.85" cy="11.6018" rx="10.4892" ry="10.7742" fill="#FF5017"/>
<path d="M9.24571 8.65967H12.4543C12.6951 8.65967 12.9094 8.81609 12.9891 9.0489L13.4512 10.4058H8.24878L8.71094 9.0489C8.79063 8.81609 9.00489 8.65967 9.24571 8.65967ZM7.64141 8.66512L7.01811 10.4931C6.6073 10.6677 6.31689 11.0842 6.31689 11.5698V13.0249C6.31689 13.456 6.54532 13.8325 6.88353 14.0325V15.062C6.88353 15.3839 7.13675 15.644 7.45017 15.644H8.01681C8.33023 15.644 8.58345 15.3839 8.58345 15.062V14.189H13.1166V15.062C13.1166 15.3839 13.3698 15.644 13.6832 15.644H14.2498C14.5633 15.644 14.8165 15.3839 14.8165 15.062V14.0325C15.1547 13.8307 15.3831 13.456 15.3831 13.0249V11.5698C15.3831 11.0842 15.0927 10.6677 14.6819 10.4931L14.0586 8.66512C13.8195 7.96487 13.1768 7.49561 12.4543 7.49561H9.24571C8.52324 7.49561 7.88046 7.96487 7.64141 8.66512ZM10 11.8608H11.7C11.8558 11.8608 11.9833 11.9918 11.9833 12.1519V12.7339C11.9833 12.8939 11.8558 13.0249 11.7 13.0249H10C9.84422 13.0249 9.71672 12.8939 9.71672 12.7339V12.1519C9.71672 11.9918 9.84422 11.8608 10 11.8608ZM7.16685 12.0063C7.16685 11.7644 7.35632 11.5698 7.59183 11.5698H8.15847C8.39398 11.5698 8.58345 11.7644 8.58345 12.0063C8.58345 12.2483 8.39398 12.4429 8.15847 12.4429H7.59183C7.35632 12.4429 7.16685 12.2483 7.16685 12.0063ZM13.5415 11.5698H14.1082C14.3437 11.5698 14.5332 11.7644 14.5332 12.0063C14.5332 12.2483 14.3437 12.4429 14.1082 12.4429H13.5415C13.306 12.4429 13.1166 12.2483 13.1166 12.0063C13.1166 11.7644 13.306 11.5698 13.5415 11.5698Z" fill="#F8FAFA"/>
</svg>
