<svg width="22" height="23" viewBox="0 0 22 23" fill="none" xmlns="http://www.w3.org/2000/svg">
<ellipse cx="10.9118" cy="11.5901" rx="10.4892" ry="10.7742" fill="#F8FAFA"/>
<path d="M9.30747 8.64795H12.5161C12.7569 8.64795 12.9711 8.80437 13.0508 9.03718L13.513 10.394H8.31054L8.77271 9.03718C8.85239 8.80437 9.06665 8.64795 9.30747 8.64795V8.64795ZM7.70318 8.65341L7.07988 10.4813C6.66906 10.656 6.37866 11.0725 6.37866 11.5581V13.0132C6.37866 13.4443 6.60709 13.8208 6.9453 14.0208V15.0503C6.9453 15.3722 7.19852 15.6323 7.51194 15.6323H8.07858C8.392 15.6323 8.64522 15.3722 8.64522 15.0503V14.1772H13.1783V15.0503C13.1783 15.3722 13.4315 15.6323 13.745 15.6323H14.3116C14.625 15.6323 14.8782 15.3722 14.8782 15.0503V14.0208C15.2165 13.8189 15.4449 13.4443 15.4449 13.0132V11.5581C15.4449 11.0725 15.1545 10.656 14.7437 10.4813L14.1204 8.65341C13.8813 7.95315 13.2385 7.48389 12.5161 7.48389H9.30747C8.58501 7.48389 7.94223 7.95315 7.70318 8.65341ZM10.0618 11.8491H11.7617C11.9176 11.8491 12.045 11.9801 12.045 12.1401V12.7222C12.045 12.8822 11.9176 13.0132 11.7617 13.0132H10.0618C9.90599 13.0132 9.77849 12.8822 9.77849 12.7222V12.1401C9.77849 11.9801 9.90599 11.8491 10.0618 11.8491ZM7.22862 11.9946C7.22862 11.7527 7.41809 11.5581 7.6536 11.5581H8.22024C8.45575 11.5581 8.64522 11.7527 8.64522 11.9946C8.64522 12.2365 8.45575 12.4312 8.22024 12.4312H7.6536C7.41809 12.4312 7.22862 12.2365 7.22862 11.9946ZM13.6033 11.5581H14.1699C14.4054 11.5581 14.5949 11.7527 14.5949 11.9946C14.5949 12.2365 14.4054 12.4312 14.1699 12.4312H13.6033C13.3678 12.4312 13.1783 12.2365 13.1783 11.9946C13.1783 11.7527 13.3678 11.5581 13.6033 11.5581Z" fill="#FF5017"/>
</svg>
