<svg width="23" height="23" viewBox="0 0 23 23" fill="none" xmlns="http://www.w3.org/2000/svg">
<circle cx="11.8559" cy="11.5304" r="11.049" fill="white"/>
<path d="M12.6595 7.13258C12.6595 6.69032 12.3005 6.33301 11.8562 6.33301C11.4119 6.33301 11.0529 6.69032 11.0529 7.13258V10.7307H7.43827C6.99397 10.7307 6.63501 11.088 6.63501 11.5303C6.63501 11.9725 6.99397 12.3298 7.43827 12.3298H11.0529V15.9279C11.0529 16.3702 11.4119 16.7275 11.8562 16.7275C12.3005 16.7275 12.6595 16.3702 12.6595 15.9279V12.3298H16.2741C16.7185 12.3298 17.0774 11.9725 17.0774 11.5303C17.0774 11.088 16.7185 10.7307 16.2741 10.7307H12.6595V7.13258Z" fill="white"/>
</svg>
