<svg width="59" height="63" viewBox="0 0 59 63" fill="none" xmlns="http://www.w3.org/2000/svg">
<rect x="0.166138" y="0.168945" width="58.8339" height="62.3364" fill="#010F58"/>
<path d="M27.3168 19.1245C27.7941 19.2129 28.2854 19.2718 28.7556 19.397C29.7102 19.6401 30.5595 20.1263 31.3035 20.7818C32.4125 21.7541 33.1705 22.9768 33.5425 24.45C33.9426 26.0262 33.8443 27.573 33.2407 29.0683C33.0161 29.6207 32.7073 30.1363 32.4265 30.6888C32.5669 30.8435 32.7494 31.0276 33.0021 31.0865C33.1144 31.1086 33.2547 31.1013 33.353 31.0423C33.5144 30.9466 33.6688 30.9392 33.8092 31.0276C33.9917 31.1381 34.1812 31.2633 34.3286 31.4253C35.8166 33.0237 37.2906 34.6295 38.7716 36.2352C39.1927 36.6919 39.1857 37.2001 38.7575 37.6421C38.3715 38.0398 37.9854 38.4302 37.5924 38.8206C37.1853 39.2331 36.687 39.2257 36.2939 38.7985C34.7919 37.1706 33.2898 35.5502 31.7948 33.915C31.6544 33.7677 31.5562 33.5688 31.4719 33.3773C31.4018 33.23 31.4228 33.0679 31.5141 32.9132C31.5702 32.8175 31.5983 32.6628 31.5632 32.567C31.479 32.3387 31.3526 32.1325 31.2684 31.963C30.7209 32.2871 30.2296 32.6186 29.7032 32.8764C28.6363 33.3994 27.5063 33.5762 26.3341 33.473C24.9514 33.3478 23.7231 32.8248 22.6492 31.9262C21.6877 31.116 20.9788 30.0995 20.5366 28.8915C20.0733 27.6246 19.968 26.3135 20.2067 24.9803C20.4313 23.7355 20.9366 22.6233 21.7298 21.6657C22.5861 20.6124 23.6249 19.8611 24.8812 19.4707C25.3585 19.3234 25.8639 19.2571 26.3552 19.1613C26.4114 19.1466 26.4745 19.1319 26.5307 19.1245C26.7904 19.1245 27.0501 19.1245 27.3168 19.1245ZM26.9378 21.3563C24.3408 21.349 22.2211 23.5808 22.2141 26.3061C22.2141 29.0315 24.3267 31.2559 26.9307 31.2633C29.5277 31.2707 31.6474 29.0462 31.6544 26.3135C31.6615 23.5955 29.5418 21.3637 26.9378 21.3563Z" fill="white"/>
</svg>
