<svg width="21" height="18" viewBox="0 0 21 18" fill="none" xmlns="http://www.w3.org/2000/svg">
<path d="M10.4553 16.7196C15.8821 16.7196 20.2803 13.1465 20.2803 8.73674C20.2803 4.32699 15.8821 0.753906 10.4553 0.753906C5.02851 0.753906 0.630275 4.32699 0.630275 8.73674C0.630275 10.4676 1.30958 12.068 2.46095 13.3768C2.38803 14.3171 2.02343 15.1537 1.63964 15.7908C1.42856 16.1439 1.21364 16.4279 1.05628 16.6198C0.975686 16.7157 0.914279 16.7887 0.868225 16.8386C0.845197 16.8616 0.829846 16.8808 0.818332 16.8923L0.806818 16.9038C0.630275 17.0803 0.580382 17.3413 0.676329 17.5716C0.772277 17.8019 0.994875 17.9515 1.24434 17.9515C2.34582 17.9515 3.45497 17.61 4.37607 17.2108C5.25495 16.827 6.00334 16.3703 6.46005 16.0364C7.6805 16.4778 9.03144 16.7234 10.4553 16.7234V16.7196ZM5.54279 9.96487C4.86348 9.96487 4.31466 9.41605 4.31466 8.73674C4.31466 8.05743 4.86348 7.50861 5.54279 7.50861C6.2221 7.50861 6.77092 8.05743 6.77092 8.73674C6.77092 9.41605 6.2221 9.96487 5.54279 9.96487ZM10.4553 9.96487C9.776 9.96487 9.22718 9.41605 9.22718 8.73674C9.22718 8.05743 9.776 7.50861 10.4553 7.50861C11.1346 7.50861 11.6834 8.05743 11.6834 8.73674C11.6834 9.41605 11.1346 9.96487 10.4553 9.96487ZM16.5959 8.73674C16.5959 9.41605 16.0471 9.96487 15.3678 9.96487C14.6885 9.96487 14.1397 9.41605 14.1397 8.73674C14.1397 8.05743 14.6885 7.50861 15.3678 7.50861C16.0471 7.50861 16.5959 8.05743 16.5959 8.73674Z" fill="#FF5017"/>
</svg>
