<svg width="209" height="210" viewBox="0 0 209 210" fill="none" xmlns="http://www.w3.org/2000/svg">
<g clip-path="url(#clip0_3_2170)">
<path opacity="0.45" d="M28.909 105.101C28.909 147.314 63.1359 181.541 105.349 181.541C147.562 181.541 181.789 147.314 181.789 105.101C181.789 62.8874 147.562 28.6605 105.349 28.6605C63.1359 28.6605 28.909 62.8874 28.909 105.101ZM21.2749 105.101C21.2749 58.6725 58.9045 21.0264 105.349 21.0264C151.777 21.0264 189.423 58.656 189.423 105.101C189.423 151.529 151.794 189.175 105.349 189.175C58.921 189.175 21.2749 151.545 21.2749 105.101Z" stroke="#010F58"/>
<path opacity="0.432" d="M28.7591 105.101C28.7591 147.397 63.0527 181.691 105.349 181.691C147.646 181.691 181.923 147.397 181.939 105.101C181.939 62.8041 147.646 28.5106 105.349 28.5106C63.0527 28.5106 28.7591 62.8041 28.7591 105.101ZM21.375 105.101C21.375 58.7227 58.9712 21.1265 105.349 21.1265C151.711 21.1265 189.307 58.7226 189.324 105.101C189.324 151.479 151.727 189.075 105.349 189.075C58.9712 189.075 21.375 151.479 21.375 105.101Z" stroke="#010F58"/>
<path opacity="0.414" d="M28.6258 105.101C28.6258 147.481 62.9694 181.824 105.349 181.824C147.712 181.824 182.073 147.481 182.073 105.101C182.073 62.7208 147.729 28.3772 105.349 28.3772C62.9694 28.3772 28.6258 62.7208 28.6258 105.101ZM21.4917 105.101C21.4917 58.7894 59.0379 21.2432 105.349 21.2432C151.644 21.2432 189.19 58.7893 189.207 105.101C189.207 151.412 151.661 188.958 105.349 188.958C59.0379 188.958 21.4917 151.412 21.4917 105.101Z" stroke="#010F58"/>
<path opacity="0.396" d="M28.4922 105.101C28.4922 147.547 62.9025 181.957 105.349 181.957C147.796 181.957 182.206 147.547 182.206 105.101C182.206 62.6539 147.796 28.2437 105.349 28.2437C62.9025 28.2437 28.4922 62.6539 28.4922 105.101ZM21.6082 105.101C21.6082 58.8558 59.1044 21.3596 105.349 21.3596C151.594 21.3596 189.073 58.8557 189.09 105.101C189.09 151.345 151.594 188.841 105.349 188.841C59.1044 188.841 21.6082 151.345 21.6082 105.101Z" stroke="#010F58"/>
<path opacity="0.378" d="M28.3422 105.101C28.3422 147.63 62.8191 182.107 105.349 182.107C147.862 182.107 182.339 147.63 182.356 105.101C182.356 62.5706 147.879 28.0937 105.349 28.0937C62.8191 28.0937 28.3422 62.5706 28.3422 105.101ZM21.7249 105.101C21.7249 58.9225 59.171 21.4763 105.349 21.4763C151.527 21.4763 188.957 58.9224 188.973 105.101C188.973 151.279 151.527 188.725 105.349 188.725C59.171 188.725 21.7249 151.279 21.7249 105.101Z" stroke="#010F58"/>
<path opacity="0.36" d="M28.2089 105.101C28.2089 147.697 62.7357 182.241 105.349 182.241C147.946 182.241 182.489 147.714 182.489 105.101C182.489 62.504 147.962 27.9603 105.349 27.9603C62.7526 27.9603 28.2089 62.4872 28.2089 105.101ZM21.8416 105.101C21.8416 58.9725 59.2211 21.593 105.349 21.593C151.46 21.593 188.857 58.9892 188.857 105.101C188.857 151.229 151.477 188.608 105.349 188.608C59.2211 188.608 21.8416 151.229 21.8416 105.101Z" stroke="#010F58"/>
<path opacity="0.342" d="M28.0589 105.101C28.0589 147.797 62.6692 182.391 105.349 182.391C148.029 182.391 182.639 147.797 182.639 105.101C182.639 62.4039 148.029 27.8104 105.349 27.8104C62.6525 27.8104 28.0589 62.404 28.0589 105.101ZM21.9583 105.101C21.9583 59.0392 59.2878 21.7097 105.349 21.7097C151.394 21.7097 188.74 59.0393 188.74 105.101C188.74 151.162 151.41 188.491 105.349 188.491C59.2878 188.491 21.9583 151.162 21.9583 105.101Z" stroke="#010F58"/>
<path opacity="0.324" d="M27.9256 105.101C27.9256 147.864 62.5858 182.524 105.349 182.524C148.096 182.524 182.773 147.864 182.773 105.101C182.773 62.3373 148.112 27.677 105.349 27.677C62.5858 27.677 27.9256 62.3373 27.9256 105.101ZM22.075 105.101C22.075 59.1059 59.3545 21.8264 105.349 21.8264C151.327 21.8264 188.623 59.106 188.623 105.101C188.623 151.095 151.344 188.375 105.349 188.375C59.3545 188.375 22.075 151.095 22.075 105.101Z" stroke="#010F58"/>
<path opacity="0.306" d="M27.7922 105.101C27.7922 147.931 62.5192 182.658 105.349 182.658C148.179 182.658 182.906 147.931 182.906 105.101C182.906 62.2707 148.179 27.5437 105.349 27.5437C62.5192 27.5437 27.7922 62.2707 27.7922 105.101ZM22.1917 105.101C22.1917 59.1726 59.4212 21.9431 105.349 21.9431C151.277 21.9431 188.507 59.1726 188.507 105.101C188.507 151.029 151.277 188.258 105.349 188.258C59.4212 188.258 22.1917 151.029 22.1917 105.101Z" stroke="#010F58"/>
<path opacity="0.288" d="M27.6423 105.101C27.6423 148.014 62.4359 182.808 105.349 182.808C148.263 182.808 183.039 148.014 183.056 105.101C183.056 62.1873 148.262 27.3937 105.349 27.3937C62.4359 27.3937 27.6423 62.1873 27.6423 105.101ZM22.3083 105.101C22.3083 59.2393 59.4879 22.0598 105.349 22.0598C151.211 22.0598 188.39 59.2393 188.39 105.101C188.39 150.962 151.211 188.141 105.349 188.141C59.4879 188.141 22.3083 150.962 22.3083 105.101Z" stroke="#010F58"/>
<path opacity="0.27" d="M27.509 105.101C27.509 148.097 62.3526 182.941 105.349 182.941C148.329 182.941 183.19 148.097 183.19 105.101C183.19 62.1041 148.346 27.2605 105.349 27.2605C62.3526 27.2605 27.509 62.1041 27.509 105.101ZM22.4084 105.101C22.4084 59.2894 59.5379 22.1599 105.349 22.1599C151.144 22.1599 188.274 59.2894 188.29 105.101C188.29 150.912 151.161 188.042 105.349 188.042C59.5379 188.042 22.4084 150.912 22.4084 105.101Z" stroke="#010F58"/>
<path opacity="0.252" d="M27.3754 105.101C27.3754 148.164 62.2857 183.074 105.349 183.074C148.412 183.074 183.323 148.164 183.323 105.101C183.323 62.0372 148.412 27.1269 105.349 27.1269C62.2857 27.1269 27.3754 62.0372 27.3754 105.101ZM22.5249 105.101C22.5249 59.3559 59.6044 22.2764 105.349 22.2764C151.077 22.2764 188.173 59.3559 188.173 105.101C188.173 150.845 151.094 187.925 105.349 187.925C59.6044 187.925 22.5249 150.845 22.5249 105.101Z" stroke="#010F58"/>
<path opacity="0.234" d="M27.2254 105.101C27.2254 148.247 62.2024 183.224 105.349 183.224C148.479 183.224 183.456 148.247 183.473 105.101C183.473 61.9539 148.496 26.9769 105.349 26.9769C62.2024 26.9769 27.2254 61.9539 27.2254 105.101ZM22.6416 105.101C22.6416 59.4226 59.6711 22.3931 105.349 22.3931C151.01 22.3931 188.057 59.4226 188.057 105.101C188.057 150.779 151.027 187.808 105.349 187.808C59.6711 187.808 22.6416 150.779 22.6416 105.101Z" stroke="#010F58"/>
<path opacity="0.216" d="M27.0921 105.101C27.0921 148.314 62.1358 183.358 105.349 183.358C148.562 183.358 183.606 148.314 183.606 105.101C183.606 61.8872 148.562 26.8436 105.349 26.8436C62.1358 26.8436 27.0921 61.8872 27.0921 105.101ZM22.7583 105.101C22.7583 59.4892 59.7378 22.5098 105.349 22.5098C150.96 22.5098 187.923 59.4891 187.94 105.101C187.94 150.712 150.96 187.691 105.349 187.691C59.7378 187.691 22.7583 150.712 22.7583 105.101Z" stroke="#010F58"/>
<path opacity="0.198" d="M26.9421 105.101C26.9421 148.414 62.0525 183.508 105.349 183.508C148.646 183.508 183.756 148.414 183.756 105.101C183.756 61.7872 148.646 26.6936 105.349 26.6936C62.0358 26.6936 26.9421 61.7872 26.9421 105.101ZM22.875 105.101C22.875 59.5559 59.8045 22.6265 105.349 22.6265C150.894 22.6265 187.823 59.5559 187.823 105.101C187.823 150.645 150.894 187.575 105.349 187.575C59.8045 187.575 22.875 150.645 22.875 105.101Z" stroke="#010F58"/>
<path opacity="0.18" d="M26.8088 105.101C26.8088 148.481 61.9691 183.641 105.349 183.641C148.713 183.641 183.873 148.481 183.889 105.101C183.889 61.7206 148.729 26.5603 105.349 26.5603C61.9691 26.5603 26.8088 61.7206 26.8088 105.101ZM22.9917 105.101C22.9917 59.6226 59.8546 22.7432 105.349 22.7432C150.827 22.7432 187.707 59.606 187.707 105.101C187.707 150.579 150.827 187.458 105.349 187.458C59.8711 187.458 22.9917 150.595 22.9917 105.101Z" stroke="#010F58"/>
<path opacity="0.162" d="M26.6755 105.101C26.6755 148.547 61.9025 183.774 105.349 183.774C148.796 183.774 184.023 148.547 184.023 105.101C184.023 61.6539 148.796 26.4269 105.349 26.4269C61.9025 26.4269 26.6755 61.6539 26.6755 105.101ZM23.1084 105.101C23.1084 59.6893 59.9213 22.8599 105.349 22.8599C150.761 22.8599 187.59 59.6727 187.59 105.101C187.59 150.512 150.777 187.341 105.349 187.341C59.9378 187.341 23.1084 150.529 23.1084 105.101Z" stroke="#010F58"/>
<path opacity="0.144" d="M26.5255 105.101C26.5255 148.631 61.8192 183.924 105.349 183.924C148.862 183.924 184.173 148.631 184.173 105.101C184.173 61.5706 148.879 26.2769 105.349 26.2769C61.8192 26.2769 26.5255 61.5706 26.5255 105.101ZM23.2251 105.101C23.2251 59.756 59.988 22.9766 105.349 22.9766C150.694 22.9766 187.473 59.7394 187.473 105.101C187.473 150.445 150.71 187.225 105.349 187.225C60.0045 187.225 23.2251 150.462 23.2251 105.101Z" stroke="#010F58"/>
<path opacity="0.126" d="M26.3922 105.101C26.3922 148.714 61.7359 184.058 105.349 184.058C148.946 184.058 184.306 148.714 184.306 105.101C184.306 61.4874 148.963 26.1437 105.349 26.1437C61.7359 26.1437 26.3922 61.4874 26.3922 105.101ZM23.3252 105.101C23.3252 59.7895 60.0546 23.0767 105.349 23.0767C150.644 23.0767 187.357 59.806 187.373 105.101C187.373 150.412 150.644 187.125 105.349 187.125C60.0381 187.125 23.3252 150.395 23.3252 105.101Z" stroke="#010F58"/>
<path opacity="0.108" d="M26.2587 105.101C26.2587 148.781 61.669 184.191 105.349 184.191C149.029 184.191 184.439 148.781 184.439 105.101C184.439 61.4205 149.029 26.0101 105.349 26.0101C61.669 26.0101 26.2587 61.4205 26.2587 105.101ZM23.4417 105.101C23.4417 59.856 60.121 23.1931 105.349 23.1931C150.577 23.1931 187.24 59.8724 187.256 105.101C187.256 150.345 150.577 187.008 105.349 187.008C60.1045 187.008 23.4417 150.329 23.4417 105.101Z" stroke="#010F58"/>
<path opacity="0.09" d="M26.1087 105.101C26.1087 148.864 61.5857 184.341 105.349 184.341C149.096 184.341 184.589 148.864 184.589 105.101C184.589 61.3372 149.112 25.8601 105.349 25.8601C61.5857 25.8601 26.1087 61.3372 26.1087 105.101ZM23.5583 105.101C23.5583 59.9226 60.1711 23.3098 105.349 23.3098C150.51 23.3098 187.123 59.9225 187.14 105.101C187.14 150.278 150.527 186.891 105.349 186.891C60.1711 186.891 23.5583 150.278 23.5583 105.101Z" stroke="#010F58"/>
<path opacity="0.072" d="M25.9753 105.101C25.9753 148.931 61.519 184.474 105.349 184.474C149.179 184.474 184.723 148.931 184.723 105.101C184.723 61.2705 149.179 25.7268 105.349 25.7268C61.5023 25.7268 25.9753 61.2706 25.9753 105.101ZM23.675 105.101C23.675 59.9893 60.2378 23.4265 105.349 23.4265C150.444 23.4265 187.007 59.9892 187.023 105.101C187.023 150.212 150.46 186.775 105.349 186.775C60.2378 186.775 23.675 150.212 23.675 105.101Z" stroke="#010F58"/>
<path opacity="0.054" d="M25.842 105.101C25.842 149.014 61.4357 184.608 105.349 184.608C149.263 184.608 184.856 149.014 184.856 105.101C184.856 61.1872 149.263 25.5935 105.349 25.5935C61.4357 25.5935 25.842 61.1872 25.842 105.101ZM23.7917 105.101C23.7917 60.056 60.3045 23.5432 105.349 23.5432C150.377 23.5432 186.907 60.0561 186.907 105.101C186.907 150.145 150.394 186.658 105.349 186.658C60.3045 186.658 23.7917 150.145 23.7917 105.101Z" stroke="#010F58"/>
<path opacity="0.036" d="M25.692 105.101C25.692 149.097 61.3524 184.758 105.349 184.758C149.329 184.758 184.989 149.097 185.006 105.101C185.006 61.1039 149.346 25.4435 105.349 25.4435C61.3524 25.4435 25.692 61.1039 25.692 105.101ZM23.9084 105.101C23.9084 60.1227 60.3712 23.6599 105.349 23.6599C150.327 23.6599 186.79 60.1227 186.79 105.101C186.79 150.079 150.327 186.541 105.349 186.541C60.3712 186.541 23.9084 150.079 23.9084 105.101Z" stroke="#010F58"/>
<path opacity="0.018" d="M25.5587 105.101C25.5587 149.164 61.2858 184.891 105.349 184.891C149.413 184.891 185.14 149.164 185.14 105.101C185.14 61.0372 149.413 25.3102 105.349 25.3102C61.2858 25.3102 25.5587 61.0372 25.5587 105.101ZM24.0251 105.101C24.0251 60.1894 60.4379 23.7766 105.349 23.7766C150.26 23.7766 186.673 60.1894 186.673 105.101C186.673 150.012 150.26 186.425 105.349 186.425C60.4379 186.425 24.0251 150.012 24.0251 105.101Z" stroke="#010F58"/>
<path opacity="0.52" d="M194.879 53.6637L194.129 52.3645L188.629 55.5398L189.379 56.8389L194.879 53.6637Z" fill="#FF5017"/>
<path opacity="0.42" d="M189.016 44.4755L188.134 43.262L182.996 46.9951L183.878 48.2086L189.016 44.4755Z" fill="#FF5017"/>
<path opacity="0.32" d="M182.212 35.9489L181.208 34.834L176.488 39.0834L177.492 40.1983L182.212 35.9489Z" fill="#FF5017"/>
<path opacity="0.22" d="M174.547 28.1959L173.432 27.1921L169.183 31.9113L170.298 32.915L174.547 28.1959Z" fill="#FF5017"/>
<path opacity="0.11" d="M166.117 21.2592L164.903 20.3774L161.171 25.5148L162.384 26.3965L166.117 21.2592Z" fill="#FF5017"/>
<path opacity="0.02" d="M157.021 15.2585L155.722 14.5085L152.547 20.0088L153.847 20.7587L157.021 15.2585Z" fill="#FF5017"/>
<path opacity="0.02" d="M52.859 14.507L51.5598 15.2571L54.7351 20.7568L56.0343 20.0068L52.859 14.507Z" fill="#FF5017"/>
<path opacity="0.11" d="M43.6592 20.3754L42.4456 21.2571L46.1781 26.3948L47.3917 25.5131L43.6592 20.3754Z" fill="#FF5017"/>
<path opacity="0.22" d="M35.144 27.1792L34.0293 28.1831L38.279 32.902L39.3937 31.8981L35.144 27.1792Z" fill="#FF5017"/>
<path opacity="0.32" d="M27.3713 34.8363L26.3674 35.9512L31.0869 40.2008L32.0907 39.086L27.3713 34.8363Z" fill="#FF5017"/>
<path opacity="0.42" d="M20.4429 43.2639L19.561 44.4775L24.6987 48.2107L25.5806 46.9971L20.4429 43.2639Z" fill="#FF5017"/>
<path opacity="0.52" d="M14.4414 52.3737L13.6914 53.6729L19.1911 56.848L19.9411 55.5489L14.4414 52.3737Z" fill="#FF5017"/>
<path opacity="0.52" d="M9.41359 62.0402L8.80347 63.4106L14.605 65.9935L15.2152 64.6231L9.41359 62.0402Z" fill="#FF5017"/>
<path opacity="0.52" d="M5.42471 72.193L4.96118 73.6196L11.0006 75.5819L11.4642 74.1553L5.42471 72.193Z" fill="#FF5017"/>
<path opacity="0.52" d="M2.53235 82.7107L2.22046 84.178L8.43192 85.4983L8.74381 84.031L2.53235 82.7107Z" fill="#FF5017"/>
<path opacity="0.52" d="M0.756448 93.4773L0.599609 94.9692L6.91534 95.6332L7.07218 94.1413L0.756448 93.4773Z" fill="#FF5017"/>
<path opacity="0.52" d="M0.124417 104.361L0.124268 105.861L6.47501 105.862L6.47516 104.361L0.124417 104.361Z" fill="#FF5017"/>
<path opacity="0.52" d="M0.582682 115.255L0.739502 116.747L7.05493 116.083L6.89811 114.591L0.582682 115.255Z" fill="#FF5017"/>
<path opacity="0.52" d="M2.21718 126.019L2.52905 127.487L8.74048 126.166L8.4286 124.699L2.21718 126.019Z" fill="#FF5017"/>
<path opacity="0.52" d="M4.98657 136.577L5.4502 138.004L11.4902 136.041L11.0266 134.614L4.98657 136.577Z" fill="#FF5017"/>
<path opacity="0.52" d="M8.81134 146.794L9.42139 148.164L15.223 145.582L14.613 144.211L8.81134 146.794Z" fill="#FF5017"/>
<path opacity="0.52" d="M13.6857 156.544L14.4358 157.843L19.9355 154.667L19.1855 153.368L13.6857 156.544Z" fill="#FF5017"/>
<path opacity="0.52" d="M19.5439 165.721L20.4258 166.934L25.5631 163.201L24.6813 161.988L19.5439 165.721Z" fill="#FF5017"/>
<path opacity="0.52" d="M26.3661 174.239L27.3699 175.354L32.0896 171.104L31.0858 169.989L26.3661 174.239Z" fill="#FF5017"/>
<path opacity="0.52" d="M34.0028 182.016L35.1177 183.019L39.3665 178.3L38.2516 177.296L34.0028 182.016Z" fill="#FF5017"/>
<path opacity="0.52" d="M42.4378 188.959L43.6514 189.84L47.384 184.703L46.1705 183.821L42.4378 188.959Z" fill="#FF5017"/>
<path opacity="0.52" d="M51.5384 194.933L52.8376 195.683L56.0125 190.183L54.7132 189.433L51.5384 194.933Z" fill="#FF5017"/>
<path opacity="0.52" d="M61.216 199.97L62.5864 200.58L65.1693 194.779L63.7988 194.169L61.216 199.97Z" fill="#FF5017"/>
<path opacity="0.52" d="M71.3856 203.955L72.8123 204.418L74.7745 198.379L73.3479 197.915L71.3856 203.955Z" fill="#FF5017"/>
<path opacity="0.52" d="M81.898 206.867L83.3652 207.178L84.6856 200.967L83.2183 200.655L81.898 206.867Z" fill="#FF5017"/>
<path opacity="0.52" d="M92.6341 208.642L94.126 208.799L94.7899 202.483L93.298 202.326L92.6341 208.642Z" fill="#FF5017"/>
<path opacity="0.52" d="M103.536 209.275L105.036 209.275L105.036 202.924L103.536 202.924L103.536 209.275Z" fill="#FF5017"/>
<path opacity="0.52" d="M114.418 208.789L115.91 208.632L115.246 202.316L113.754 202.473L114.418 208.789Z" fill="#FF5017"/>
<path opacity="0.52" d="M125.205 207.158L126.673 206.846L125.352 200.634L123.885 200.946L125.205 207.158Z" fill="#FF5017"/>
<path opacity="0.52" d="M135.774 204.395L137.201 203.932L135.239 197.892L133.812 198.356L135.774 204.395Z" fill="#FF5017"/>
<path opacity="0.52" d="M145.97 200.591L147.34 199.981L144.757 194.179L143.387 194.79L145.97 200.591Z" fill="#FF5017"/>
<path opacity="0.52" d="M155.716 195.695L157.015 194.944L153.84 189.445L152.541 190.195L155.716 195.695Z" fill="#FF5017"/>
<path opacity="0.52" d="M164.911 189.823L166.125 188.941L162.392 183.803L161.178 184.685L164.911 189.823Z" fill="#FF5017"/>
<path opacity="0.52" d="M173.445 183.023L174.56 182.019L170.31 177.3L169.195 178.304L173.445 183.023Z" fill="#FF5017"/>
<path opacity="0.52" d="M181.197 175.371L182.201 174.257L177.481 170.007L176.478 171.122L181.197 175.371Z" fill="#FF5017"/>
<path opacity="0.52" d="M188.116 166.949L188.998 165.735L183.86 162.002L182.979 163.216L188.116 166.949Z" fill="#FF5017"/>
<path opacity="0.52" d="M194.128 157.837L194.878 156.538L189.378 153.363L188.628 154.662L194.128 157.837Z" fill="#FF5017"/>
<path opacity="0.52" d="M199.14 148.164L199.75 146.794L193.948 144.211L193.338 145.581L199.14 148.164Z" fill="#FF5017"/>
<path opacity="0.52" d="M203.133 137.994L203.596 136.567L197.557 134.605L197.093 136.032L203.133 137.994Z" fill="#FF5017"/>
<path opacity="0.52" d="M206.034 127.505L206.346 126.037L200.134 124.717L199.822 126.185L206.034 127.505Z" fill="#FF5017"/>
<path opacity="0.52" d="M207.811 116.739L207.968 115.247L201.652 114.583L201.495 116.075L207.811 116.739Z" fill="#FF5017"/>
<path opacity="0.52" d="M208.452 105.859L208.452 104.359L202.101 104.358L202.101 105.858L208.452 105.859Z" fill="#FF5017"/>
<path opacity="0.52" d="M207.968 94.9557L207.811 93.4639L201.496 94.1277L201.652 95.6196L207.968 94.9557Z" fill="#FF5017"/>
<path opacity="0.52" d="M206.327 84.1832L206.015 82.7158L199.804 84.0355L200.115 85.5029L206.327 84.1832Z" fill="#FF5017"/>
<path opacity="0.52" d="M203.602 73.6294L203.139 72.2026L197.099 74.1653L197.562 75.5921L203.602 73.6294Z" fill="#FF5017"/>
<path opacity="0.52" d="M199.76 63.4237L199.15 62.0532L193.349 64.6358L193.959 66.0062L199.76 63.4237Z" fill="#FF5017"/>
<path d="M61.8982 109.033V103.033H57.2982V109.033H51.7316L59.2982 93H54.5982L47.0316 109.033V113.267H57.2982V117H61.8982V113.267H64.0316V109.033H61.8982ZM67.6649 99.4C67.6982 100.267 67.8316 101.267 68.2649 102.267C68.5649 102.933 69.0316 103.533 69.5316 104.1C68.6982 104.833 68.0316 105.767 67.6316 106.733C67.1982 107.8 67.0316 108.833 67.0316 109.8C67.0316 112.033 67.9982 114.233 69.6982 115.633C71.1649 116.867 73.3316 117.5 75.3982 117.5C77.3982 117.5 79.5316 116.967 81.1316 115.633C82.8982 114.2 83.6982 112.133 83.7982 109.8C83.7649 108.833 83.6316 107.8 83.1982 106.733C82.7982 105.767 82.1316 104.833 81.2982 104.1C81.7982 103.533 82.2316 102.933 82.5316 102.267C82.9982 101.267 83.1316 100.267 83.1316 99.4C83.1316 97.2667 82.1982 95.2333 80.4982 94C79.1316 92.9333 77.2982 92.5 75.3982 92.5C73.6316 92.5 71.7649 92.9 70.3316 94C68.5649 95.2667 67.7649 97.1333 67.6649 99.4ZM72.4649 99.4C72.4649 98.6 72.6982 97.9 73.2649 97.4333C73.7982 96.9667 74.5982 96.7667 75.3982 96.7333C76.2316 96.7667 77.0316 96.9667 77.5649 97.4333C78.0982 97.9 78.3649 98.6 78.3316 99.4C78.3649 100.2 78.0982 100.9 77.5649 101.367C77.0316 101.833 76.2316 102.033 75.3982 102.033C74.5982 102.033 73.7982 101.833 73.2649 101.367C72.6982 100.9 72.4649 100.2 72.4649 99.4ZM78.0316 112.333C77.3982 112.933 76.3982 113.233 75.3982 113.233C74.3982 113.233 73.4316 112.933 72.7649 112.333C72.0982 111.7 71.8316 110.767 71.8316 109.8C71.8316 108.8 72.0982 107.867 72.7649 107.267C73.4316 106.633 74.3982 106.333 75.3982 106.333C76.3982 106.333 77.3982 106.633 78.0316 107.267C78.6982 107.867 78.9982 108.8 78.9982 109.8C78.9982 110.767 78.6982 111.7 78.0316 112.333ZM89.9586 117H94.5586L102.592 97.2667V93H87.4586V97.2667H98.0253L89.9586 117ZM107.85 93L107.117 105.333L111.017 107.567C111.15 107.3 111.35 107.033 111.584 106.8C112.284 106.1 113.25 105.7 114.217 105.7C115.217 105.7 116.184 106.1 116.884 106.8C117.584 107.5 117.984 108.467 117.984 109.433C117.984 110.433 117.584 111.4 116.884 112.1C116.184 112.767 115.217 113.167 114.217 113.167C113.25 113.167 112.284 112.767 111.584 112.067C111.117 111.633 110.784 111.033 110.617 110.4L106.25 111.567C106.65 112.967 107.417 114.233 108.45 115.2C109.984 116.667 112.15 117.5 114.217 117.433C116.317 117.5 118.45 116.7 120.017 115.233C121.55 113.767 122.517 111.6 122.55 109.433C122.65 107.233 121.884 105.133 120.117 103.533C118.65 102.3 116.717 101.633 114.884 101.633C113.85 101.633 112.617 101.9 111.55 102.467L111.85 97.2333H120.45V93H107.85ZM130.042 93L125.542 95.7V100.7L130.042 97.9333V117H134.675V93H130.042ZM163.334 105.733H157.1V99.5H153.6V105.733H147.334V109.233H153.6V115.5H157.1V109.233H163.334V105.733Z" fill="#FF5017"/>
</g>
<defs>
<clipPath id="clip0_3_2170">
<rect width="208.352" height="208.352" fill="white" transform="translate(0.106445 0.924561)"/>
</clipPath>
</defs>
</svg>
