<svg width="22" height="21" viewBox="0 0 22 21" fill="none" xmlns="http://www.w3.org/2000/svg">
<path d="M16.7556 12.8202C16.483 13.0844 16.3577 13.4665 16.4198 13.8412L17.3556 19.0198C17.4345 19.4587 17.2492 19.9029 16.8819 20.1565C16.5219 20.4197 16.043 20.4512 15.6504 20.2407L10.9886 17.8093C10.8265 17.723 10.6465 17.6767 10.4623 17.6714H10.1771C10.0781 17.6862 9.98131 17.7177 9.89289 17.7662L5.23005 20.2092C4.99954 20.3249 4.7385 20.366 4.48273 20.3249C3.85961 20.2071 3.44385 19.6134 3.54595 18.9871L4.48273 13.8085C4.54483 13.4307 4.41957 13.0465 4.14696 12.7781L0.346162 9.09411C0.0282884 8.78571 -0.0822305 8.32259 0.0630229 7.90472C0.204066 7.4879 0.564042 7.18371 0.99875 7.1153L6.22998 6.3564C6.62785 6.31535 6.9773 6.07326 7.15623 5.71539L9.46134 0.989392C9.51607 0.884136 9.5866 0.7873 9.67185 0.7052L9.76658 0.631521C9.81605 0.576788 9.87289 0.531528 9.93605 0.494688L10.0508 0.452586L10.2297 0.378906H10.6728C11.0686 0.419956 11.417 0.656782 11.5991 1.01044L13.9347 5.71539C14.1031 6.05958 14.4305 6.29851 14.8084 6.3564L20.0396 7.1153C20.4817 7.17845 20.8511 7.48369 20.9974 7.90472C21.1353 8.3268 21.0164 8.78992 20.6922 9.09411L16.7556 12.8202Z" fill="#FF5017"/>
</svg>
