<svg width="33" height="33" viewBox="0 0 33 33" fill="none" xmlns="http://www.w3.org/2000/svg">
<circle cx="14.0913" cy="13.9124" r="12.7253" stroke="#FF5017" stroke-width="2"/>
<circle cx="18.8845" cy="18.6434" r="13.7253" fill="#FF5017"/>
<path d="M16.4621 21.1323C16.5965 20.9217 16.7184 20.7236 16.8445 20.5296C17.5815 19.3992 18.421 18.3491 19.3395 17.3613C20.3688 16.2544 21.4702 15.2265 22.6865 14.3246C23.1783 13.9602 23.6909 13.625 24.2201 13.3147C24.306 13.2648 24.3531 13.2745 24.403 13.3576C24.4515 13.4394 24.5083 13.5169 24.5692 13.5917C24.6233 13.6569 24.6108 13.6943 24.5443 13.7441C23.7921 14.3094 23.1188 14.9619 22.476 15.6462C21.7431 16.4248 21.0615 17.2477 20.4076 18.0928C19.5196 19.2426 18.6925 20.434 17.9791 21.7016C17.7851 22.0466 17.6009 22.3957 17.4291 22.7518C17.4 22.8113 17.3612 22.8557 17.3058 22.8931C16.8445 23.1965 16.3859 23.5026 15.9523 23.8448C15.8997 23.8864 15.847 23.9279 15.7985 23.9736C15.7459 24.0221 15.7223 24.0069 15.7015 23.9432C15.5893 23.5844 15.4508 23.2339 15.3039 22.8875C15.0241 22.2267 14.7498 21.5631 14.3758 20.948C14.1416 20.5629 13.8701 20.2124 13.4753 19.9741C13.3908 19.9228 13.3021 19.8799 13.2093 19.8439C13.1691 19.8286 13.1469 19.8092 13.1857 19.7691C13.5473 19.4075 13.9297 19.0792 14.4312 18.9254C14.7831 18.8173 15.0795 18.8866 15.3372 19.1567C15.6046 19.438 15.7985 19.7649 15.98 20.1029C16.1559 20.4313 16.2973 20.7762 16.4621 21.1323Z" fill="#F8FAFA"/>
</svg>
