<svg width="16" height="16" viewBox="0 0 16 16" fill="none" xmlns="http://www.w3.org/2000/svg">
<path fill-rule="evenodd" clip-rule="evenodd" d="M7.7981 0.982422C11.9336 0.982422 15.2981 4.34692 15.2981 8.48242C15.2981 12.6179 11.9336 15.9824 7.7981 15.9824C3.6626 15.9824 0.298096 12.6179 0.298096 8.48242C0.298096 4.34692 3.6626 0.982422 7.7981 0.982422ZM7.7981 2.10742C4.28285 2.10742 1.4231 4.96717 1.4231 8.48242C1.4231 11.9977 4.28285 14.8574 7.7981 14.8574C11.3133 14.8574 14.1731 11.9977 14.1731 8.48242C14.1731 4.96717 11.3133 2.10742 7.7981 2.10742ZM7.544 4.80397C7.85525 4.80397 8.1065 5.05597 8.1065 5.36647V8.68297L10.6602 10.2055C10.9265 10.3652 11.0142 10.7102 10.8552 10.9772C10.7495 11.1535 10.5627 11.2517 10.3715 11.2517C10.2732 11.2517 10.1742 11.2262 10.0835 11.173L7.256 9.48622C7.0865 9.38422 6.9815 9.20047 6.9815 9.00247V5.36647C6.9815 5.05597 7.2335 4.80397 7.544 4.80397Z" fill="white" fill-opacity="0.75"/>
</svg>
