<svg width="51" height="50" viewBox="0 0 51 50" fill="none" xmlns="http://www.w3.org/2000/svg">
<circle cx="25.3064" cy="25" r="25" fill="#F8FAFA"/>
<path d="M37.8719 17.2157C36.9475 17.6251 35.9532 17.902 34.9104 18.0257C35.9751 17.3885 36.7922 16.3804 37.1778 15.1772C36.1816 15.7674 35.0776 16.1957 33.9037 16.4265C32.9632 15.426 31.6232 14.8008 30.1394 14.8008C27.2925 14.8008 24.9836 17.107 24.9836 19.9505C24.9836 20.3542 25.0293 20.747 25.1177 21.1242C20.8328 20.9095 17.0335 18.8594 14.4903 15.7429C14.0466 16.5033 13.7921 17.3885 13.7921 18.3321C13.7921 20.1184 14.703 21.6953 16.0857 22.6185C15.2409 22.592 14.4453 22.3604 13.7505 21.9737C13.7502 21.9956 13.7502 22.0175 13.7502 22.039C13.7502 24.5342 15.5281 26.6153 17.8863 27.0881C17.4541 27.2064 16.9977 27.269 16.5282 27.269C16.1952 27.269 15.8726 27.2371 15.5581 27.1772C16.2141 29.2227 18.1178 30.7116 20.3745 30.7535C18.6096 32.1349 16.3867 32.9579 13.9705 32.9579C13.5552 32.9579 13.1438 32.9337 12.7412 32.8857C15.0217 34.3474 17.7325 35.1996 20.644 35.1996C30.1275 35.1996 35.3137 27.3527 35.3137 20.547C35.3137 20.3238 35.3087 20.1015 35.2987 19.881C36.3069 19.1552 37.1809 18.2484 37.8719 17.2157Z" fill="#FF5017"/>
</svg>
