<svg width="51" height="50" viewBox="0 0 51 50" fill="none" xmlns="http://www.w3.org/2000/svg">
<circle cx="25.3066" cy="25" r="25" fill="#F8FAFA"/>
<path d="M25.3101 35.1894C27.9642 35.1894 30.6183 35.1615 33.2723 35.1987C35.9435 35.2359 37.7954 33.246 38.2562 31.1074C38.3586 30.6518 38.4098 30.1683 38.4098 29.6941C38.4269 26.5698 38.4183 23.4455 38.4183 20.3213C38.4098 17.1691 36.2507 14.8073 33.3577 14.8073C27.9813 14.798 22.6048 14.798 17.237 14.8073C14.361 14.8073 12.2019 17.1784 12.1934 20.3027C12.1934 23.4362 12.1934 26.5698 12.1934 29.7034C12.2019 32.7532 14.2671 35.115 17.0577 35.1708C19.8057 35.2266 22.5622 35.1801 25.3101 35.1894ZM21.888 29.3593C21.888 26.4117 21.888 23.5292 21.888 20.6002C24.1836 22.0694 26.4451 23.5106 28.7493 24.9798C26.4366 26.4582 24.1836 27.8902 21.888 29.3593Z" fill="#FF5017"/>
</svg>
